<?xml version="1.0" encoding="utf-8"?>
<!-- Generator: Adobe Illustrator 18.0.0, SVG Export Plug-In . SVG Version: 6.00 Build 0)  -->
<!DOCTYPE svg PUBLIC "-//W3C//DTD SVG 1.1//EN" "http://www.w3.org/Graphics/SVG/1.1/DTD/svg11.dtd">
<svg version="1.1" xmlns="http://www.w3.org/2000/svg" xmlns:xlink="http://www.w3.org/1999/xlink" x="0px" y="0px"
	 viewBox="0 0 2048 1536" enable-background="new 0 0 2048 1536" xml:space="preserve">
<g id="Layer_2">
</g>
<g id="Layer_4">
</g>
<g id="Layer_3">
	<g>
		<path fill="#272449" d="M704.6,1230.5c0-11.9,0.6-23.8-0.2-35.6c-0.5-7.4-5.1-8.3-11.1-3.9c-9.8,7.2-8,17.9-8.5,27.4
			c-0.6,12.4,0.1,24.9,0.9,37.4c0.4,6.2-2,7.7-7.6,7.5c-8.5-0.4-17-0.2-25.5-0.3c-4.6,0-6.2,1.3-6.7,6.8c-0.7,8.3,3.1,13.5,6.7,20.2
			c4.8,9.1,7.1,20.1,8,30.6c1.4,14.6-2,28.7-9.9,41.4c-4.5,7.2-11.2,10-19.4,11.5c-9.5,1.7-17.6-0.4-25-5.9
			c-9.3-7-14.1-16.6-15.9-27.9c-0.3-1.9,0.1-3.8-0.3-5.7c-0.9-4.6-0.4-8.9-7.1-11.3c-10.3-3.7-12.8-17.4-6.2-29.1
			c3-5.4,8.1-9.6,11.2-14.9c1.8-3.1,1.6-7.4,1.6-11.2c0-0.5-3.5-1.4-5.4-1.6c-11.7-1.1-23.4-1.4-35-3.2c-4.8-0.7-9.2-4-8.8-10.4
			c1.2-21.6,2.1-43.3,3.6-64.9c1.2-16.5,3.7-32.9,4.8-49.3c0.4-5.8-1.6-11.7-2-17.6c-0.8-11.8-1.1-23.7-2.2-35.5
			c-0.3-2.9-2.3-6.9-4.7-8.2c-18.1-9.9-23.1-28.2-19.1-46.4c2.9-13.4,7.4-26.4,19.8-33.7c7.6-4.4,9-9.9,9.7-17.9
			c0.9-11.1,4-22,6.4-33c1.3-6.2,2.4-12.6,4.8-18.3c7.8-18.6,19.5-33.9,38-43.4c3.9-2,7.2-5.2,10.5-8.2c5.9-5.4,13.1-5.3,20.2-4.4
			c4.8,0.6,6.7-0.5,7.2-5.6c1.2-11.7-2.1-15.3-13.8-18c-22.7-5.1-41.6-16.3-53.5-37.3c-8.1-14.2-12.7-29.4-15.3-45.5
			c-0.5-3-3.8-7.1-6.6-7.8c-14.7-3.7-23.9-12.6-31.1-26c-5.7-10.6-6.4-20.2-2.7-30.9c3-8.8,8.6-14.2,17.7-16.7
			c1.8-0.5,3.8-4.8,3.7-7.3c-0.3-5.9-1.7-11.8-2.9-17.7c-0.8-4.2-3.4-6.3-7.4-8.4c-9.9-5.2-22.3-16-19.8-27.7
			c1.2-5.6,3.5-11.8,7.3-15.8c6.8-7.3,14.9-13.5,22.9-19.7c8.2-6.4,16.7-12.5,25.5-18c19.7-12.5,40.3-23.2,63.9-26.1
			c11.1-1.4,22.1-0.4,32.6,4.4c2.3,1,6.5,1.3,8.2-0.1c16.6-13.2,34.9-14.6,54.4-8.6c10.8,3.3,22.1,5.6,32.1,10.5
			c13.9,6.9,26.8,15.8,40.2,23.8c12.2,7.3,20.5,17.8,24.9,31.3c4.5,13.7-2,22.1-12.4,29.7c-3.6,2.6-6.9,4.3-5.6,9.9
			c0.9,4,0.2,8.5,0.3,12.7c0.2,5.4,1.7,9.2,7,12.8c7.4,4.9,13.4,12.4,13,22.3c-0.6,13,0.9,26.5-5.7,38.7
			c-5.3,9.6-10.6,19.1-23.6,19.9c-1.4,0.1-3.1,4-3.9,6.4c-3.8,12.1-6.7,24.6-11.3,36.4c-3.6,9.3-8,18.7-14.2,26.4
			c-4.9,6.1-12.5,10.6-19.8,14c-8.6,4-18.1,5.9-27.2,8.9c-1.8,0.6-4.7,2-4.7,3.1c-0.3,5.9-0.2,11.9,0.6,17.7
			c0.2,1.5,2.9,3.4,4.8,3.8c12.6,3,25.6,4.8,38,8.6c11.3,3.5,21.7,10.2,29.4,19.1c15.5,18,28.6,37.6,30.3,62.4
			c0.6,7.8,0.8,15.7,0.7,23.6c-0.1,6.1,2.6,9,8.6,9.9c20.7,3.2,32.2,19,28.3,39.9c-1.7,9.1-4.3,18-7.3,26.7
			c-2.8,8-10.2,11.6-17.1,15.7c-2,1.2-4.2,4.2-4.2,6.4c0,12.1,0.7,24.2,1,36.3c0.1,2.5,0.1,5.5-1,7.6c-7.3,12.8-2.4,26.3-2.6,39.4
			c-0.4,20.1-0.7,40.1-0.6,60.2c0,9.1,0.8,18.3,1.8,27.4c1,8.8-0.8,13-10.4,11c-3.5-0.7-7.1-0.5-10.7-0.4c-1.9,0.1-3.8,1-5.7,1.5
			c1.2,2.2,1.8,5,3.6,6.4c4.1,3.3,8.7,6.1,13.1,8.9c12.1,7.8,11.5,21.3-1.4,27.7c-3.6,1.8-7.6,3.9-11.3,3.7c-6-0.3-5.6,2.6-5.3,6.7
			c1.4,16.4-2.7,31.4-11.3,45.4c-9.9,16-28.7,16.3-41,2.6c-5.9-6.5-12.7-12.3-12.8-21.8c-0.1-19.4-2.4-39.3,8-57.2
			c1.2-2,2.7-3.8,4.2-5.5c1-1.1,2.9-1.7,3.4-2.9c1.3-3.7,2.2-7.5,3.2-11.3c-2.7-0.4-5.4-1-8.2-1.1c-7.4-0.2-14.9,0.2-22.3-0.2
			c-8.6-0.4-10.9-3.1-10.9-11.6C704.6,1244.6,704.6,1237.6,704.6,1230.5C704.6,1230.5,704.6,1230.5,704.6,1230.5z M661,840.4
			c14.4-2.2,31.4-5.2,48.5-7.4c15.3-2,29.8-5.7,39.4-19c5.9-8.2,12.7-16.3,15.9-25.6c5-14.6,7-30.2,10.9-45.1
			c8.5-32.4,12.1-65.4,12.4-98.8c0-2.2-0.8-6-1.9-6.2c-8.6-2-13.5-8.7-19.4-14.1c-1.1-1-3.1-1.5-4.7-1.6c-9.1-0.2-17-3-23.6-9.5
			c-1.3-1.3-3.7-2.3-5.5-2.1c-13.5,1.4-24.8-2.7-33.6-13c-2.6-3-4.7-4-9.1-3.3c-5.4,0.8-11.4-0.3-16.7-2c-4.7-1.5-9.4-7.6-12.9-6.7
			c-3.8,0.9-6.7,7.3-9,11.7c-6,11.4-15.3,12.9-26.6,10.5c-2.2-0.5-5.5,0.9-7.4,2.4c-4.7,3.8-8.4,8.9-13.4,12.3
			c-6.9,4.8-14.9,4.5-22.6,1.5c-4.5-1.7-6.5-0.3-8.8,3.9c-5.9,10.8-15.1,18.6-26.6,22.8c-5.5,2-6.4,4.4-5.4,9.2
			c4.3,20.3,8.3,40.7,12.9,61c2.4,10.7,6.2,21.2,8.2,32c4.5,25.1,13.7,48,30.7,67.2c3.8,4.3,8.6,8,13.6,10.7
			C622.4,840.2,640.6,838.4,661,840.4z M651.5,991.6c3.4,0,6.9-0.3,10.2,0.1c9.6,1,16.2,7.4,15.9,15.2c-0.6,13.2,5.8,26.3,0.1,39.6
			c-0.6,1.4,1,3.6,1.3,5.4c0.5,2.9,1.6,6.1,1,8.8c-2.4,11.3-12.5,19.5-24.4,19.3c-8.2-0.1-16.6-0.7-24.6-2.7
			c-6.3-1.5-11.6-4-17.1,1.6c-1.4,1.5-4.8,1.3-7.4,1.4c-14.4,0.8-28.7,1.4-43.1,2.2c-1,0.1-2.9,1-2.9,1.6
			c0.2,10.6,0.3,21.2,1.1,31.7c0.1,1.7,3.1,4.7,4.8,4.7c29.6,0,59.2-0.6,88.7-0.8c20.6-0.1,41.3,0.1,61.9,0.4
			c5.9,0.1,11.8,1.4,17.6,1.1c15.5-0.6,31.1-2,46.6-2.7c6-0.3,12.1,0.8,18.2,1c5,0.2,10.8,1.3,10.9-6.7c0.1-9.8,0.2-19.6,0.7-29.4
			c0.2-4.8-1.4-6.8-6.2-5.8c-1.9,0.4-3.8,0.5-5.7,0.6c-11.9,0.8-23.8,1.3-34.9-3.8c-3.8-1.8-5.4-1.2-7.9,1.9
			c-6.6,8.2-15.2,11.3-25.6,8.4c-3.1-0.8-6.3-1.4-9.4-1.9c-14.1-2.2-18.8-11.5-11.5-24.1c1.8-3.2,1.7-4.6-1.4-6.6
			c-9.4-6.1-10.5-12.5-4.5-22.6c0.9-1.5,0-4.1-0.4-6.1c-1.4-6.9-4.7-14.1-3.9-20.7c1.4-10.9,19.4-12.7,27.7-12
			c11.4,0.9,22.9,11.6,34.4,0.4c0.3-0.3,0.8-0.4,1.2-0.5c10.1-1.6,20.1-3.7,30.3-4.6c5.8-0.5,7.5-2.5,6.6-7.8
			c-0.4-2.1-0.6-4.2-0.8-6.3c-1.7-16.6-9.1-31.5-14.2-47.1c-7.7-23.7-24.4-36-46.8-42.9c-1.6-0.5-3.5-0.1-5.2-0.1
			c0.2,1.8-0.2,3.8,0.6,5.3c5.1,10.2,4.5,20.3-0.5,30.1c-10.1,19.6-32.9,25.9-51.8,14.4c-3.9-2.3-6.3-3.3-10,0.8
			c-2.4,2.7-6.9,4.2-10.7,4.7c-11.8,1.6-21.2-4.6-30.6-10.6c-11.1-7.1-16.4-16-10.8-29.2c0.3-0.7,0-1.6,0-2.4
			c-0.8,0.2-1.8,0.1-2.3,0.5c-1.6,1.3-3.3,2.7-4.7,4.2c-5.7,6.6-11,13.5-17,19.8c-17.5,18.3-26.9,40.3-30.2,65.1
			c-0.3,2.4,2.1,7,4.2,7.6c6,1.8,12.6,1.5,18.7,3.2c9.3,2.7,18.3,6.4,27.5,9.4c1.5,0.5,4.1,0,5-1
			C628.7,994.1,639.3,990.8,651.5,991.6z M722.9,1229.6c-0.9,9.8,2.2,14.7,9.3,15.3c7.1,0.6,14.3,0.8,21.5,0.4
			c14.3-0.8,28.6-2.5,42.9-2.9c4.2-0.1,5.2-1.8,5.7-4.8c1.3-8.1,2.8-16.3,3.2-24.5c1-20.9,1.6-41.9,1.9-62.8
			c0.1-14-0.3-13.7-13.9-14.6c-20.8-1.4-41.6-4.4-62.4-4.6c-31.2-0.3-62.4,1-93.6,2.1c-21.1,0.7-42.1,2.2-63.1,3.6
			c-1.7,0.1-4.3,2.3-4.6,3.9c-1.3,7.3-2.4,14.6-2.7,22c-0.8,24.3-1.1,48.6-1.9,72.8c-0.3,9.5,1.7,12.3,11.1,12
			c3.8-0.1,7.6-0.5,11.3-0.2c15.7,1,31.3,2.4,47,3.3c5.9,0.3,11.9-1.1,17.8-0.8c9.3,0.5,15.4-3.4,17-12.3c0.9-5,1.1-10.2,1.5-15.3
			c1-12.7,2.5-25.1,8.5-36.9c4.2-8.3,18.3-12.4,27.5-7.5c9,4.8,12.3,13.2,14,21.8C722.9,1209.2,722.4,1219.5,722.9,1229.6z
			 M809.6,607.1c-0.8-10.2-7.5-17.7-15.3-24c-23-18.4-49.9-29.4-78.1-36.8c-11.2-2.9-23-4-34.6-0.1c-8.7,3-14.2,10.7-14,20.7
			c0.2,10,2.5,13.1,13.8,15.7c4.6,1,9.7,0.7,14.4-0.1c5.1-0.9,7.9-0.3,9.4,5.2c0.9,3.1,3.1,6,5.4,8.4c5.5,5.8,14.5,5.6,24.8,0
			c7-3.8,13.6-0.6,14.4,6.9c1,9,4,10.6,11.8,6.4c9.4-5.1,13.7-3.5,17.7,6.4c3.6,8.9,8.5,12.6,19.8,11c3.6-0.5,6.6-7.1,9.2-11.3
			C809.5,613.4,809.1,610.4,809.6,607.1z M619.9,1032.5c-2.1-15.9-7.4-24.1-21.2-26c-15.3-2.1-30.9-3-46.3-2.4
			c-5.3,0.2-10.7,6.2-15.4,10.4c-7.6,6.6-11.2,31.4-6.4,39.8c8.2,14.2,22.1,18.6,36.8,19.8c11.5,1,23.1-0.5,34.7-1.3
			c5.7-0.4,11.3-2.2,12.6-8.6C616.9,1053.7,618.2,1043.1,619.9,1032.5z M651.9,570.3c0.4-9.6-5.2-20.1-9.8-19.9
			c-15.7,0.5-31.7,1-45.8,9.3c-19.6,11.6-39.2,23.2-58.4,35.5c-7.2,4.6-13.7,10.7-19.5,17.1c-6.9,7.5-5.5,15.1,3,20.6
			c3.1,2,6.9,3,10.5,4c8.5,2.4,20-1.2,23.7-7.8c2.6-4.8,4.7-10,5.9-15.3c1.2-5.3,5-7.6,9.1-8.4c2.4-0.4,5.3,3.1,8.2,4
			c5.9,1.8,12.2,5,17.8,4.1c6.5-1,11.7-6.3,11.2-14.3c-0.3-5.5,1.5-8.9,7.5-8c4.1,0.5,8.1,1.3,12,2.5c8.5,2.7,19.6-1.1,21.6-9.7
			C650.1,578.6,651.3,573.2,651.9,570.3z M767.2,1043.9c-0.2,0-0.3,0-0.5,0.1c0,1.5,0,3,0,4.5c-0.2,11.5,1.1,13.6,12.7,14.2
			c11.3,0.6,22.7-0.4,34,0c5.7,0.2,10.4,0,15.1-3.9c10.9-9.1,14.9-20.7,14.8-34.5c-0.1-10.5-11.6-25.9-21.9-26.3
			c-16.3-0.6-32.7-0.4-49,0.1c-6.2,0.2-10.4,4-9.5,11C764.2,1020.7,765.7,1032.3,767.2,1043.9z M700.1,928.3
			c13.5,1.1,23.9-9.6,29.1-22.9c2.7-7.1-1.8-18.7-10.2-25.8c-1.7-1.4-4.1-2-6.1-3c-0.7,2.1-1.5,4.2-1.9,6.3
			c-1.7,8-1.8,16.8-11.3,20.6c-11.3,4.6-22.9,3.6-34.4,2.4c-11-1.2-20.8-4.7-24.6-17c-0.3-1.1-5.7-2-7.9-1
			c-5.9,2.6-10.8,15.7-8.3,21.8c4.7,11.6,15.1,15.9,26.2,18.8c9.1,2.4,15.5-2.6,19.8-9.2c4.3-6.8,6.9-3.3,9.8,0.2
			C685.7,926.1,692.3,929.7,700.1,928.3z M726.9,997.8c0,0.1,0,0.2,0,0.3c-2.3,0-4.8-0.4-7,0.1c-6.1,1.3-12.4,2.7-12.6,10.9
			c-0.2,8.1,5.8,9.7,12,11.6c2.8,0.9,5.1,3.6,7.6,5.5c-2.3,1.6-4.6,3.3-6.9,4.8c-0.5,0.3-1.4,0.2-1.8,0.7c-2.3,2.6-4.5,5.2-6.7,7.8
			c2.2,1.6,4.3,3.2,6.6,4.6c1,0.7,2.4,0.8,3.6,1.3c6.4,2.2,7.4,6,3.2,11c-2.5,2.9-5,5.8-7.3,8.9c-2.7,3.7-2.4,6.6,1.8,9.6
			c5,3.6,9.6,2.6,15,1.7c13.8-2.2,21.5-10.4,20.9-24.3c-0.5-10.6-2.4-21.2-2.7-31.8c-0.5-15.5-2.2-18.2-17.2-21.9
			C732.5,997.9,729.6,998,726.9,997.8z M754.2,1356.1c16.6,0,22.2-3.3,26.1-18.3c2.4-9.3,2-19.3,2.8-29.1c0.4-4.5,0.7-7.8,7.3-7.7
			c6.3,0.1,14.2,0.5,17.5-7.3c1-2.4,1.4-6.9,0-8c-3.2-2.7-7.5-4.1-11.5-5.5c-0.4-0.1-1.8,3.7-3.2,5.2c-2.4,2.7-4.8,6-8,7.4
			c-3.3,1.5-7.5,1.5-11.3,1.3c-4.2-0.2-5.9,0.2-3.1,4.6c0.9,1.5,1.8,4.7,1.1,5.2c-3.8,2.9-1.9,5.1,0.1,7.8c1.3,1.8,1.6,4.2,2.4,6.3
			c-2.4,0.2-4.9,0.9-7.3,0.6c-3.6-0.4-4.9,0.4-4.9,4.3c0,1.8-2,3.6-3.1,5.4c-1.8-1.8-3.9-3.5-5.3-5.6c-0.9-1.5-0.1-4.4-1.2-5.4
			c-4.3-3.9-3.5-7.2,0.2-10.7c0.5-0.5,0.4-2.8,0-3c-8.9-4.3-3.9-6.6,1.1-9.2c0.8-0.4,1.6-2.5,1.3-2.7c-5.9-6.1-13.4-5.1-16.1,2.8
			c-5.9,17-7.1,34,1.4,50.8C743.9,1351.5,746.8,1357.1,754.2,1356.1z M680.1,897.2c17,1.8,24.2-8.2,22.4-23.2
			c-1-8-1.5-16.2-1.3-24.3c0.2-5-1.4-5.1-5.4-4.5c-15.1,2.2-30.3,4.2-45.5,5.8c-4.1,0.4-4.3,2-3.8,5.3c1.4,9,2.7,18,3.8,27
			c0.8,7.5,4.7,11.9,11.9,12.6C668.6,896.4,674.8,896.8,680.1,897.2z M653.6,999.6c-6.2,1.2-12.5,1.6-18.2,3.7
			c-5.4,2-10.8,5.4-10.5,12.4c0.6,13.4,1.7,26.8,2.4,40.3c0.2,4.1-0.5,7.1,5.1,9.7c9.9,4.8,27.5,5.1,35-2.4c2.2-2.2,3.6-6.6,3.2-9.7
			c-0.3-2-4.3-3.8-6.9-5.2c-1.8-1-4.3-0.8-6.1-1.9c-1.8-1.1-2.9-3.2-4.3-4.8c2-1.6,3.9-3.5,6.1-4.8c0.8-0.5,2.6,0.8,3.7,0.4
			c2.8-1.1,5.7-2.3,8-4.1c0.8-0.6,0.6-4.2-0.1-4.5c-2.8-1.2-5.8-2-8.9-2.3c-2.5-0.2-5.2,1.2-7.4,0.5c-2.4-0.8-4.4-3.1-6.6-4.7
			c1.8-1.7,3.4-3.9,5.5-5c3.3-1.7,7.2-2.4,10.6-4.1c5.7-2.9,5.9-7.2,0.4-10.2C661.3,1001.3,657.4,1000.7,653.6,999.6z M630.5,1361.5
			c2.6-2,9.1-4.5,12-9.3c9-14.9,13.6-31,7-48.5c-3.1-8.1-2.8-8.2-9.9-4c-1.1,0.6-2.3,1-3.3,1.7c-0.3,0.2-0.4,1.6-0.2,1.7
			c7,4,5.7,11.8,8.4,17.8c2.1,4.7,1.1,5.9-3.5,6.6c-1.5,0.2-3,2.4-4,3.9c-1.3,1.9-1.7,5.4-3.1,5.8c-2.2,0.6-5.1-0.5-7.6-1.4
			c-1.6-0.6-2.7-2.6-4.3-3.1c-6.2-2-7.8-5.7-5.1-11.9c0.6-1.4,0.6-3.9-0.3-4.9c-4-4.5-3-8.5,2.7-10.6c1.6-0.6,2.9-2.1,4.4-3.2
			c-1.5-0.7-2.9-1.9-4.5-2.2c-9.2-1.2-18.7-1.6-26.1-8.4c-0.5-0.4-1.9-0.6-2-0.5c-2.2,4.5-5.5,8.9-5.9,13.6
			c-0.4,4.5,4.3,5.8,8.8,6.1c6.4,0.4,11.6,7.7,10.2,13c-1.2,4.7-2.3,9.7-1.9,14.5C603.3,1350.6,615.8,1361.8,630.5,1361.5z
			 M548.6,739.2c-3.3-15.1-6.6-30.3-10.1-45.3c-0.1-0.5-2.5-1.1-3-0.6c-6.5,5.8-12.3,11.2-11.5,21.7c0.8,10.3,8,24.5,17.2,28.7
			C546.3,746,547.8,744.1,548.6,739.2z M619.3,1287.9c11.3,1.8,16.7-8,16.8-19.2c0-4.5-1.4-5.8-5.7-5.6c-7.5,0.4-15.1-0.3-22.5,0.5
			c-2.3,0.3-5.6,4-5.9,6.4C600.5,1282.8,604.9,1287,619.3,1287.9z M812.5,696.8c-1.8-4.6-3.2-9.5-5.6-13.8c-1-1.8-4-2.5-6.1-3.7
			c-0.7,2.1-1.8,4.2-2.2,6.4c-2.1,13.8-4.1,27.7-5.9,41.6c-0.5,3.6,0,7.3,0,10.9c3.1-2,6.8-3.3,9.1-6
			C810.3,722.1,810.5,709.5,812.5,696.8z M785.6,1271.4c-0.6-11-0.6-11-11.4-11.3c-2.8-0.1-5.5-0.3-8.3-0.6
			c-10.8-0.9-14.6,3.7-12,14.6c1.7,7,7.1,9.9,18.8,10.2C782.9,1284.6,786.2,1281.3,785.6,1271.4z"/>
		<path fill="#FCCB8D" d="M661,840.4c-20.4-1.9-38.6-0.2-54.8-9.2c-5-2.8-9.8-6.5-13.6-10.7c-17.1-19.2-26.2-42.1-30.7-67.2
			c-1.9-10.8-5.8-21.3-8.2-32c-4.5-20.3-8.6-40.7-12.9-61c-1-4.8-0.1-7.2,5.4-9.2c11.4-4.2,20.7-12,26.6-22.8
			c2.3-4.2,4.3-5.6,8.8-3.9c7.7,3,15.7,3.3,22.6-1.5c4.9-3.4,8.7-8.5,13.4-12.3c1.9-1.6,5.2-2.9,7.4-2.4
			c11.4,2.4,20.7,0.9,26.6-10.5c2.4-4.5,5.3-10.8,9-11.7c3.5-0.9,8.2,5.2,12.9,6.7c5.3,1.7,11.4,2.9,16.7,2c4.4-0.7,6.5,0.2,9.1,3.3
			c8.8,10.2,20.1,14.4,33.6,13c1.8-0.2,4.2,0.9,5.5,2.1c6.6,6.5,14.5,9.3,23.6,9.5c1.6,0,3.6,0.5,4.7,1.6
			c5.9,5.4,10.9,12.1,19.4,14.1c1.1,0.3,1.9,4.1,1.9,6.2c-0.3,33.4-3.9,66.4-12.4,98.8c-3.9,15-5.9,30.6-10.9,45.1
			c-3.2,9.3-10,17.4-15.9,25.6c-9.6,13.3-24,17-39.4,19C692.4,835.2,675.4,838.2,661,840.4z M603.8,685.7c0.1-0.4,0.3-0.7,0.4-1.1
			c5.5-0.8,11-1.4,16.4-2.4c5.6-1.1,11.4-1.9,16.5-4.1c3.1-1.3,6.1-4.8,7.3-8c3.3-8.9-2.5-22.5-10.9-27
			c-20.2-10.9-40.6-10.2-60.4,0.6c-7.4,4.1-11.7,11.4-11.5,20.2c0.2,7.9,6.3,12.4,12.3,14.6C583.5,681.9,593.8,683.3,603.8,685.7z
			 M721.6,680.2c12.7,0.3,22-2.5,30.2-8.6c12.3-9.1,10.1-27.9-3.9-34c-22.3-9.8-42.5-4.4-61.1,9.4c-2.2,1.6-3.4,7.4-2.4,10.1
			c1.9,4.7,5.4,9.1,9.1,12.7C702,677.7,712.4,681,721.6,680.2z M665.5,824c7.3-1.6,15-2.6,22.1-5.1c12.8-4.7,16.7-20,6-26.7
			c-8.2-5.2-19-8.3-28.8-8.6c-10.5-0.3-21.2,3.4-31.7,5.9c-6.4,1.5-11,5.8-11.8,12.8c-0.8,6.9,2.6,12.1,10.1,14.2
			C642.6,819.3,653.8,821.4,665.5,824z M658.7,758.1c6.9-0.4,12-0.3,16.9-1.1c19.7-3.2,31.3-22.1,25.4-41.1
			c-0.4-1.4-2.1-2.3-3.2-3.5c-0.9,1.1-2.4,2.2-2.7,3.5c-1.3,5.6-1.1,11.9-3.7,16.8c-2.7,5-7.2,10-12.2,12.6
			c-5,2.6-11.5,2.9-17.4,2.9c-16.7,0-24.6-1.2-31.1-14.3c-2.2-4.3-2.4-9.6-4.6-13.9c-1.6-3.2-5.2-8.1-7.3-7.8
			c-5.8,0.8-5.7,6.5-3.8,10.6c4.3,9,9.2,17.8,14.4,26.2c1.4,2.2,4.7,3.8,7.5,4.5C644.8,755.4,652.7,756.9,658.7,758.1z"/>
		<path fill="#396AB2" d="M651.5,991.6c-12.2-0.8-22.8,2.5-31.1,12c-0.9,1-3.6,1.5-5,1c-9.2-3-18.2-6.8-27.5-9.4
			c-6-1.7-12.7-1.4-18.7-3.2c-2-0.6-4.5-5.2-4.2-7.6c3.3-24.7,12.7-46.8,30.2-65.1c6-6.3,11.3-13.2,17-19.8c1.4-1.6,3-2.9,4.7-4.2
			c0.6-0.4,1.5-0.4,2.3-0.5c0,0.8,0.3,1.7,0,2.4c-5.6,13.2-0.3,22.1,10.8,29.2c9.4,6,18.8,12.2,30.6,10.6c3.8-0.5,8.3-2,10.7-4.7
			c3.7-4.1,6.2-3.1,10-0.8c18.9,11.5,41.7,5.2,51.8-14.4c5-9.8,5.6-19.9,0.5-30.1c-0.7-1.5-0.4-3.5-0.6-5.3c1.7,0,3.6-0.4,5.2,0.1
			c22.4,6.9,39.1,19.2,46.8,42.9c5.1,15.6,12.5,30.4,14.2,47.1c0.2,2.1,0.4,4.2,0.8,6.3c1,5.3-0.8,7.3-6.6,7.8
			c-10.1,0.9-20.2,3-30.3,4.6c-0.4,0.1-0.9,0.2-1.2,0.5c-11.5,11.2-23,0.6-34.4-0.4c-8.3-0.7-26.4,1.2-27.7,12
			c-0.8,6.6,2.5,13.8,3.9,20.7c0.4,2,1.2,4.6,0.4,6.1c-5.9,10.1-4.9,16.5,4.5,22.6c3.1,2,3.2,3.4,1.4,6.6
			c-7.2,12.6-2.6,21.9,11.5,24.1c3.2,0.5,6.3,1,9.4,1.9c10.4,2.9,19-0.2,25.6-8.4c2.4-3,4.1-3.6,7.9-1.9c11.1,5.1,23,4.7,34.9,3.8
			c1.9-0.1,3.9-0.3,5.7-0.6c4.9-0.9,6.4,1.1,6.2,5.8c-0.5,9.8-0.5,19.6-0.7,29.4c-0.1,8-5.9,6.9-10.9,6.7c-6.1-0.2-12.2-1.3-18.2-1
			c-15.5,0.7-31.1,2-46.6,2.7c-5.8,0.2-11.7-1.1-17.6-1.1c-20.6-0.3-41.3-0.5-61.9-0.4c-29.6,0.2-59.2,0.7-88.7,0.8
			c-1.7,0-4.7-2.9-4.8-4.7c-0.8-10.5-0.9-21.1-1.1-31.7c0-0.5,1.8-1.5,2.9-1.6c14.4-0.8,28.7-1.4,43.1-2.2c2.5-0.1,5.9,0.1,7.4-1.4
			c5.5-5.6,10.8-3.2,17.1-1.6c7.9,2,16.3,2.5,24.6,2.7c11.9,0.2,22-8,24.4-19.3c0.6-2.7-0.5-5.9-1-8.8c-0.3-1.9-1.9-4.1-1.3-5.4
			c5.7-13.3-0.7-26.4-0.1-39.6c0.3-7.8-6.2-14.2-15.9-15.2C658.4,991.3,654.9,991.6,651.5,991.6z"/>
		<path fill="#706F6F" d="M722.9,1229.6c-0.5-10.1,0-20.3-1.9-30.1c-1.6-8.6-4.9-17-14-21.8c-9.2-4.9-23.3-0.9-27.5,7.5
			c-6,11.8-7.6,24.2-8.5,36.9c-0.4,5.1-0.6,10.3-1.5,15.3c-1.6,8.9-7.8,12.8-17,12.3c-5.9-0.3-11.9,1.2-17.8,0.8
			c-15.7-0.8-31.3-2.2-47-3.3c-3.8-0.2-7.6,0.1-11.3,0.2c-9.4,0.3-11.5-2.5-11.1-12c0.9-24.3,1.1-48.6,1.9-72.8
			c0.3-7.4,1.4-14.7,2.7-22c0.3-1.6,2.9-3.8,4.6-3.9c21-1.4,42.1-2.9,63.1-3.6c31.2-1.1,62.4-2.4,93.6-2.1
			c20.8,0.2,41.6,3.2,62.4,4.6c13.6,0.9,14.1,0.6,13.9,14.6c-0.2,20.9-0.9,41.9-1.9,62.8c-0.4,8.2-1.9,16.4-3.2,24.5
			c-0.5,3-1.4,4.7-5.7,4.8c-14.3,0.4-28.6,2.2-42.9,2.9c-7.1,0.4-14.4,0.2-21.5-0.4C725.1,1244.3,722,1239.3,722.9,1229.6z"/>
		<path fill="#683C11" d="M809.6,607.1c-0.5,3.3-0.1,6.3-1.3,8.3c-2.6,4.2-5.6,10.8-9.2,11.3c-11.3,1.6-16.3-2.1-19.8-11
			c-4-9.9-8.3-11.5-17.7-6.4c-7.8,4.2-10.8,2.6-11.8-6.4c-0.8-7.5-7.5-10.7-14.4-6.9c-10.3,5.6-19.2,5.8-24.8,0
			c-2.3-2.4-4.5-5.3-5.4-8.4c-1.5-5.5-4.4-6.1-9.4-5.2c-4.7,0.8-9.8,1.2-14.4,0.1c-11.3-2.5-13.6-5.6-13.8-15.7
			c-0.2-10,5.3-17.7,14-20.7c11.6-3.9,23.4-2.8,34.6,0.1c28.2,7.4,55,18.3,78.1,36.8C802.1,589.4,808.8,596.9,809.6,607.1z"/>
		<path fill="#1C599B" d="M619.9,1032.5c-1.7,10.5-3.1,21.1-5.2,31.6c-1.3,6.4-7,8.2-12.6,8.6c-11.6,0.8-23.2,2.2-34.7,1.3
			c-14.7-1.2-28.7-5.6-36.8-19.8c-4.8-8.4-1.2-33.1,6.4-39.8c4.7-4.1,10.1-10.2,15.4-10.4c15.4-0.6,31,0.3,46.3,2.4
			C612.5,1008.4,617.8,1016.6,619.9,1032.5z"/>
		<path fill="#683C11" d="M651.9,570.3c-0.6,2.9-1.7,8.3-3,13.6c-2,8.6-13.1,12.4-21.6,9.7c-3.9-1.2-8-2-12-2.5
			c-6-0.8-7.9,2.5-7.5,8c0.5,8-4.7,13.3-11.2,14.3c-5.6,0.8-11.9-2.3-17.8-4.1c-2.9-0.9-5.8-4.4-8.2-4c-4.1,0.8-7.9,3.1-9.1,8.4
			c-1.2,5.3-3.3,10.6-5.9,15.3c-3.7,6.7-15.2,10.2-23.7,7.8c-3.6-1-7.4-2-10.5-4c-8.6-5.5-9.9-13.1-3-20.6
			c5.8-6.3,12.3-12.5,19.5-17.1c19.2-12.3,38.8-23.9,58.4-35.5c14.1-8.3,30-8.8,45.8-9.3C646.7,550.2,652.3,560.7,651.9,570.3z"/>
		<path fill="#1C599B" d="M767.2,1043.9c-1.4-11.6-2.9-23.2-4.3-34.8c-0.8-7.1,3.3-10.9,9.5-11c16.3-0.5,32.7-0.7,49-0.1
			c10.3,0.4,21.8,15.8,21.9,26.3c0.1,13.9-3.9,25.4-14.8,34.5c-4.7,3.9-9.5,4.1-15.1,3.9c-11.3-0.4-22.7,0.6-34,0
			c-11.5-0.6-12.9-2.7-12.7-14.2c0-1.5,0-3,0-4.5C766.9,1043.9,767,1043.9,767.2,1043.9z"/>
		<path fill="#1C599B" d="M700.1,928.3c-7.8,1.4-14.4-2.2-19.9-8.9c-2.9-3.5-5.5-7-9.8-0.2c-4.2,6.7-10.7,11.6-19.8,9.2
			c-11.1-2.9-21.4-7.2-26.2-18.8c-2.5-6.1,2.4-19.2,8.3-21.8c2.2-0.9,7.5-0.1,7.9,1c3.8,12.3,13.6,15.8,24.6,17
			c11.6,1.3,23.2,2.2,34.4-2.4c9.5-3.9,9.6-12.6,11.3-20.6c0.5-2.1,1.3-4.2,1.9-6.3c2.1,1,4.4,1.6,6.1,3
			c8.4,7.1,12.9,18.7,10.2,25.8C724.1,918.7,713.7,929.4,700.1,928.3z"/>
		<path fill="#FCCB8D" d="M726.9,997.8c2.8,0.2,5.6,0.1,8.3,0.8c15,3.7,16.6,6.4,17.2,21.9c0.4,10.6,2.2,21.2,2.7,31.8
			c0.7,14-7.1,22.1-20.9,24.3c-5.4,0.9-10,1.9-15-1.7c-4.1-3-4.5-5.9-1.8-9.6c2.3-3.1,4.8-6,7.3-8.9c4.3-5,3.2-8.8-3.2-11
			c-1.2-0.4-2.5-0.6-3.6-1.3c-2.3-1.4-4.4-3.1-6.6-4.6c2.2-2.6,4.4-5.3,6.7-7.8c0.4-0.4,1.3-0.3,1.8-0.7c2.3-1.6,4.6-3.2,6.9-4.8
			c-2.5-1.9-4.7-4.7-7.6-5.5c-6.2-1.9-12.2-3.4-12-11.6c0.2-8.2,6.5-9.6,12.6-10.9c2.2-0.5,4.7-0.1,7-0.1
			C726.8,998,726.8,997.9,726.9,997.8z"/>
		<path fill="#E5231B" d="M754.2,1356.1c-7.4,1-10.3-4.6-13.5-10.8c-8.5-16.8-7.3-33.8-1.4-50.8c2.7-7.9,10.2-9,16.1-2.8
			c0.3,0.3-0.6,2.4-1.3,2.7c-5.1,2.6-10,4.9-1.1,9.2c0.4,0.2,0.6,2.5,0,3c-3.7,3.6-4.5,6.8-0.2,10.7c1.1,1,0.2,3.9,1.2,5.4
			c1.3,2.1,3.5,3.8,5.3,5.6c1.1-1.8,3.1-3.6,3.1-5.4c-0.1-3.9,1.2-4.8,4.9-4.3c2.4,0.3,4.9-0.4,7.3-0.6c-0.8-2.1-1.1-4.6-2.4-6.3
			c-2-2.8-3.9-4.9-0.1-7.8c0.6-0.5-0.2-3.7-1.1-5.2c-2.8-4.3-1.2-4.8,3.1-4.6c3.8,0.2,8,0.2,11.3-1.3c3.1-1.4,5.5-4.7,8-7.4
			c1.4-1.6,2.8-5.4,3.2-5.2c4,1.4,8.4,2.8,11.5,5.5c1.4,1.2,1,5.7,0,8c-3.3,7.8-11.2,7.4-17.5,7.3c-6.6-0.2-6.9,3.1-7.3,7.7
			c-0.8,9.7-0.4,19.7-2.8,29.1C776.5,1352.8,770.8,1356,754.2,1356.1z"/>
		<path fill="#FCCB8D" d="M680.1,897.2c-5.3-0.4-11.6-0.7-17.8-1.3c-7.3-0.7-11.1-5.1-11.9-12.6c-1-9-2.3-18-3.8-27
			c-0.5-3.3-0.3-4.9,3.8-5.3c15.2-1.6,30.3-3.6,45.5-5.8c4-0.6,5.6-0.5,5.4,4.5c-0.3,8.1,0.3,16.3,1.3,24.3
			C704.4,889,697.1,899,680.1,897.2z"/>
		<path fill="#FCCB8D" d="M653.6,999.6c3.8,1.1,7.7,1.7,10.9,3.4c5.6,3,5.4,7.3-0.4,10.2c-3.4,1.7-7.2,2.4-10.6,4.1
			c-2.1,1.1-3.7,3.3-5.5,5c2.2,1.6,4.1,4,6.6,4.7c2.2,0.7,5-0.8,7.4-0.5c3,0.3,6.1,1.1,8.9,2.3c0.6,0.3,0.8,3.9,0.1,4.5
			c-2.4,1.8-5.2,3-8,4.1c-1,0.4-2.8-0.9-3.7-0.4c-2.2,1.3-4.1,3.2-6.1,4.8c1.4,1.6,2.6,3.7,4.3,4.8c1.7,1.1,4.2,0.9,6.1,1.9
			c2.6,1.4,6.7,3.2,6.9,5.2c0.4,3.1-1,7.5-3.2,9.7c-7.5,7.5-25.1,7.1-35,2.4c-5.5-2.7-4.8-5.6-5.1-9.7c-0.7-13.4-1.9-26.8-2.4-40.3
			c-0.3-7,5.1-10.5,10.5-12.4C641.1,1001.2,647.4,1000.8,653.6,999.6z"/>
		<path fill="#E5231B" d="M630.5,1361.5c-14.7,0.3-27.1-10.9-28.3-23.3c-0.5-4.7,0.7-9.8,1.9-14.5c1.4-5.3-3.8-12.6-10.2-13
			c-4.5-0.3-9.2-1.6-8.8-6.1c0.4-4.7,3.8-9.1,5.9-13.6c0.1-0.1,1.5,0.1,2,0.5c7.4,6.8,16.9,7.2,26.1,8.4c1.6,0.2,3,1.4,4.5,2.2
			c-1.5,1.1-2.8,2.7-4.4,3.2c-5.7,2.1-6.7,6.1-2.7,10.6c0.9,1,0.9,3.5,0.3,4.9c-2.7,6.2-1.1,9.9,5.1,11.9c1.6,0.5,2.7,2.5,4.3,3.1
			c2.4,0.9,5.3,2.1,7.6,1.4c1.5-0.4,1.9-3.9,3.1-5.8c1-1.6,2.5-3.7,4-3.9c4.6-0.7,5.6-1.9,3.5-6.6c-2.7-6-1.4-13.8-8.4-17.8
			c-0.2-0.1-0.1-1.5,0.2-1.7c1-0.7,2.3-1,3.3-1.7c7-4.2,6.8-4.1,9.9,4c6.6,17.5,2,33.6-7,48.5C639.6,1357,633.1,1359.5,630.5,1361.5
			z"/>
		<path fill="#FCCB8D" d="M548.6,739.2c-0.8,4.9-2.4,6.8-7.4,4.4c-9.2-4.3-16.4-18.4-17.2-28.7c-0.8-10.5,5.1-15.9,11.5-21.7
			c0.5-0.4,2.9,0.2,3,0.6C542,708.9,545.3,724.1,548.6,739.2z"/>
		<path fill="#9D7D95" d="M619.3,1287.9c-14.4-0.9-18.8-5.1-17.4-17.8c0.3-2.4,3.6-6.1,5.9-6.4c7.4-0.9,15-0.2,22.5-0.5
			c4.3-0.2,5.8,1.1,5.7,5.6C636,1280,630.6,1289.8,619.3,1287.9z"/>
		<path fill="#FCCB8D" d="M812.5,696.8c-1.9,12.7-2.2,25.3-10.7,35.4c-2.2,2.7-6,4-9.1,6c0-3.6-0.5-7.3,0-10.9
			c1.8-13.9,3.8-27.7,5.9-41.6c0.3-2.2,1.4-4.3,2.2-6.4c2.1,1.2,5.1,1.9,6.1,3.7C809.3,687.3,810.7,692.1,812.5,696.8z"/>
		<path fill="#9D7D95" d="M785.6,1271.4c0.6,9.9-2.7,13.2-12.9,12.9c-11.7-0.3-17.1-3.2-18.8-10.2c-2.6-10.9,1.2-15.5,12-14.6
			c2.8,0.2,5.5,0.5,8.3,0.6C785,1260.4,785,1260.3,785.6,1271.4z"/>
		<path fill="#272449" d="M603.8,685.7c-10-2.3-20.3-3.8-29.9-7.3c-6-2.2-12.1-6.7-12.3-14.6c-0.2-8.9,4.1-16.2,11.5-20.2
			c19.8-10.9,40.2-11.5,60.4-0.6c8.4,4.5,14.2,18.1,10.9,27c-1.2,3.2-4.2,6.7-7.3,8c-5.1,2.2-10.9,3.1-16.5,4.1
			c-5.4,1-10.9,1.6-16.4,2.4C604.1,684.9,604,685.3,603.8,685.7z M592.7,644.5c-9.5,1.9-15.6,6.4-19.8,13.2c-2.5,4.2-2,8.7,2.9,10.7
			c5.8,2.4,12,3.9,18.1,5.8c1.1,0.3,2.2,0.7,3.3,1c-0.3-1.2-0.3-2.5-0.9-3.5c-4.5-7.4-7.5-14.8-2.3-23.2
			C594.5,647.8,593.2,645.9,592.7,644.5z M635.3,661.1c-1.3-6.7-4.8-11.6-11.5-13.7c-1.5-0.5-3.2-0.3-4.8-0.4
			c0.2,1.6,0.4,3.2,0.5,4.7c0.2,5,0.7,10.1,0.4,15.1c-0.1,2.2-1.7,4.4-2.7,6.6c2.3-0.4,4.7-0.7,7-1.2
			C630.2,670.8,634.6,667.9,635.3,661.1z"/>
		<path fill="#272449" d="M721.6,680.2c-9.2,0.9-19.6-2.4-28.1-10.4c-3.8-3.5-7.3-8-9.1-12.7c-1.1-2.8,0.1-8.5,2.4-10.1
			c18.6-13.7,38.8-19.1,61.1-9.4c14,6.1,16.2,25,3.9,34C743.6,677.7,734.2,680.4,721.6,680.2z M733.6,655.6c-0.9,2-2.7,5.1-3.5,8.5
			c-0.4,1.8,1,4,1.5,6c5.3-2.3,10.7-4.4,15.7-7c4.5-2.3,5.7-7.3,3.4-10.8c-2.2-3.3-6.6-5.6-10.5-7.3c-6.6-2.8-8.5-0.9-7.2,6
			C733.3,652,733.3,653.1,733.6,655.6z M710,648.4c0.7-0.7,1.4-1.4,2-2c-1.4-0.1-2.8-0.5-4.2-0.2c-1.6,0.3-3.2,1.2-4.7,1.9
			c-8.6,3.8-9.4,8.1-2.9,14.6c2.2,2.2,4.1,4.8,6.5,6.7c1,0.8,3.2,0.7,4.6,0.2c0.8-0.3,1.6-2.2,1.5-3.2
			C712,660.3,711,654.4,710,648.4z"/>
		<path fill="#272449" d="M665.5,824c-11.6-2.6-22.9-4.7-34-7.7c-7.5-2-10.9-7.3-10.1-14.2c0.8-6.9,5.4-11.2,11.8-12.8
			c10.5-2.5,21.2-6.2,31.7-5.9c9.8,0.3,20.5,3.4,28.8,8.6c10.7,6.7,6.8,22.1-6,26.7C680.5,821.4,672.8,822.4,665.5,824z
			 M659.5,816.1c12.9-1.3,23.5,0.7,30-9.7c2.5-4,1.6-6.4-1.8-8.8c-11.2-8-42.2-5.9-52.6,3.2c-4.8,4.2-3.3,6.2,1.1,7.7
			C644.9,811.7,653.7,814.3,659.5,816.1z"/>
		<path fill="#272449" d="M658.7,758.1c-6-1.3-13.9-2.7-21.7-4.7c-2.8-0.7-6.1-2.3-7.5-4.5c-5.2-8.5-10.1-17.3-14.4-26.2
			c-2-4.1-2.1-9.8,3.8-10.6c2.1-0.3,5.7,4.6,7.3,7.8c2.2,4.3,2.4,9.6,4.6,13.9c6.5,13.1,14.4,14.3,31.1,14.3
			c5.9,0,12.4-0.3,17.4-2.9c5-2.6,9.6-7.6,12.2-12.6c2.6-4.9,2.4-11.2,3.7-16.8c0.3-1.3,1.8-2.3,2.7-3.5c1.1,1.2,2.7,2.1,3.2,3.5
			c5.9,19.1-5.7,38-25.4,41.1C670.7,757.8,665.6,757.7,658.7,758.1z"/>
		<path fill="#AAD2E8" d="M592.7,644.5c0.5,1.4,1.7,3.3,1.2,4.1c-5.3,8.4-2.2,15.8,2.3,23.2c0.6,1,0.6,2.4,0.9,3.5
			c-1.1-0.4-2.2-0.7-3.3-1c-6-1.9-12.3-3.3-18.1-5.8c-4.8-2-5.4-6.6-2.9-10.7C577.1,650.9,583.2,646.4,592.7,644.5z"/>
		<path fill="#AAD2E8" d="M635.3,661.1c-0.6,6.8-5.1,9.8-11.1,11.1c-2.3,0.5-4.7,0.8-7,1.2c0.9-2.2,2.5-4.4,2.7-6.6
			c0.3-5-0.2-10.1-0.4-15.1c-0.1-1.6-0.3-3.2-0.5-4.7c1.6,0.1,3.3-0.1,4.8,0.4C630.4,649.5,634,654.4,635.3,661.1z"/>
		<path fill="#AAD2E8" d="M733.6,655.6c-0.3-2.5-0.4-3.6-0.6-4.6c-1.3-6.9,0.6-8.8,7.2-6c3.9,1.6,8.3,3.9,10.5,7.3
			c2.4,3.6,1.1,8.5-3.4,10.8c-5.1,2.7-10.5,4.7-15.7,7c-0.6-2-2-4.2-1.5-6C730.9,660.8,732.7,657.7,733.6,655.6z"/>
		<path fill="#AAD2E8" d="M710,648.4c1,6,2.1,12,2.9,18c0.1,1.1-0.7,3-1.5,3.2c-1.4,0.5-3.6,0.6-4.6-0.2c-2.4-1.9-4.3-4.5-6.5-6.7
			c-6.6-6.6-5.8-10.8,2.9-14.6c1.6-0.7,3.1-1.5,4.7-1.9c1.3-0.3,2.8,0.1,4.2,0.2C711.3,647,710.7,647.7,710,648.4z"/>
		<path fill="#E5231B" d="M659.5,816.1c-5.8-1.9-14.7-4.4-23.3-7.5c-4.4-1.6-5.9-3.6-1.1-7.7c10.4-9.1,41.3-11.2,52.6-3.2
			c3.5,2.5,4.3,4.9,1.8,8.8C683,816.8,672.5,814.8,659.5,816.1z"/>
	</g>
</g>
<g id="Layer_1">
</g>
</svg>
