<?xml version="1.0" encoding="utf-8"?>
<!-- Generator: Adobe Illustrator 18.0.0, SVG Export Plug-In . SVG Version: 6.00 Build 0)  -->
<!DOCTYPE svg PUBLIC "-//W3C//DTD SVG 1.1//EN" "http://www.w3.org/Graphics/SVG/1.1/DTD/svg11.dtd">
<svg version="1.1" xmlns="http://www.w3.org/2000/svg" xmlns:xlink="http://www.w3.org/1999/xlink" x="0px" y="0px"
	 viewBox="0 0 2048 1536" enable-background="new 0 0 2048 1536" xml:space="preserve">
<g id="Layer_2">
	<radialGradient id="SVGID_1_" cx="1024" cy="768" r="905.0967" gradientUnits="userSpaceOnUse">
		<stop  offset="0" style="stop-color:#A4B5BF"/>
		<stop  offset="1" style="stop-color:#84ADBA"/>
	</radialGradient>
	<rect fill="url(#SVGID_1_)" width="2048" height="1536"/>
</g>
<g id="Layer_4">
	<path fill="#658A92" d="M2048,1256.1c-90.5-45.4-343.2-79.8-426.6-90.9C1078.6,1092.7,537.5,1276.4,0,1279.8V1536h2048V1256.1z"/>
</g>
<g id="Layer_3">
</g>
<g id="Layer_1">
	<path fill="#658A92" d="M1990.1,100.4c-2.8-14.5-10.9-29.5-22.8-39.3c-8.4-6.9-19-11-28.4-14.1c-32.2-10.5-334.6-3.8-602.1-4
		c-176.7-0.1-443.1,2.3-466.3-0.2c-30.1-1.3-82.4,4.2-85.2,5.1c-12.3,3.8-17,6.6-19.3,8c-4.9,2.8-9.1,7.3-12.2,12.4
		c-6.4,10.4-14.3,33.9-14.4,34.9c-3.4,43.2,9.6,53.8,16.5,62.1c4.5,5.5,13.8,11.8,25.5,17.1c3.7,1.7,30.5,10.8,50.1,9.5
		c30.8-2,339.5,0.7,515.7,0.8c194.7,0.1,417.9,3.7,524.4,2.9c38-0.3,62.6-5.5,63.7-5.6c8.3-0.3,18.9-4.8,25.2-11
		c12.1-11.8,21.9-22.5,28.6-39.6C1990.1,136.8,1993.5,118.1,1990.1,100.4z"/>
	
		<radialGradient id="SVGID_2_" cx="1921.4236" cy="115.9893" r="73.4704" gradientTransform="matrix(1 0 0 1.0259 0 -1.1134)" gradientUnits="userSpaceOnUse">
		<stop  offset="0" style="stop-color:#A4B5BF"/>
		<stop  offset="1" style="stop-color:#84ADBA"/>
	</radialGradient>
	<path fill="url(#SVGID_2_)" d="M1991.3,100.7c-4.4-14.4-10.9-30.3-22.8-40.3c-8.4-7.1-19.2-10.6-28.4-14.5
		c-5.9-2.5-25.3-3.9-36.4-2c-3.7,1-6.9,2-9.8,2.9c-12.3,3.9-17,6.8-19.3,8.2c-4.9,2.9-9.1,7.5-12.2,12.7
		c-6.4,10.7-14.3,34.8-14.4,35.8c-3.4,44.3,9.6,55.2,16.5,63.8c4.5,5.6,13.8,12.1,25.5,17.5c3.7,1.7,7.7,3.4,11.9,4.8
		c6.1,2.1,28.1,3.4,34.6,3.1c8.3-0.3,18.9-4.9,25.2-11.3c12.1-12.1,21.9-23.1,28.6-40.7c1-2.7,5.1-19.7,5.2-20.9
		C1995.7,113.1,1993,106.3,1991.3,100.7z"/>
	<g>
		<path fill="#436668" d="M1990.6,786.5c2.3,14.2-2.5,31.5-17.7,36.4c-8.1,2.6-17.2,6.9-25.7,7.8c-7.1,0.7-14.8,2.4-21.8,2.4
			c-5.3,0-15.5-7-19.7-10.1c-3.4-2.4-6.9-6.1-9.1-9.8c-0.8-1.3-1.9-5.9-2.7-6.1c-0.2,0-0.3-4.7-1.6-5.8c-1.9-1.5-2.2-5.3-2.6-7.5
			c-1.2-6.2-6.4-19.1-0.9-40.6c0.8-3,2.3-5.4,3.7-8.1c2.5-5,7.3-10.4,11.6-14.4c6.6-6,9.9-7,18.7-6.9c5.9,0,13-2.7,18.8-1.5
			c14.7,3,28.2,5.2,35.4,20c3.4,7,7.6,13.1,9.6,20.7C1988.6,770.9,1989.3,778.7,1990.6,786.5z"/>
		<path fill="#28305A" d="M1890.4,815.3c-4.6-8.6-5.6-17.1-8.3-26.3c-5.6-19.3-0.6-41.4,9.9-57.9c4.5-7.1,8-11.2,16.1-13.1
			c3.6-0.8,5.8-2.1,9.2-3.6c4.9-2.1,10.7-1.9,15.8-3.5c16.2-5.4,34.3,5.2,46.4,15.6c5.4,4.6,9.6,15.6,11.4,22.2
			c2.1,7.9,4.4,16,4.4,24.3c0,0,0,0,0,0h0c0,0,0,0,0,0c3.6,7.1,2,15.2,2.5,23c0.6,8.3,0.2,16.1-5.1,22.9c-4.5,5.6-8.6,7.6-15.4,10.1
			c-7,2.5-14.8,6.7-22.3,7.2c-7.4,0.5-15.3,3.2-22.7,4.2c-9.1,1.2-20-4.4-27.2-9.2C1898.4,826.6,1894.2,822.3,1890.4,815.3z
			 M1889.6,794c0.4,2.1,0.6,6,2.6,7.5c1.4,1,1.4,5.7,1.6,5.8c0.9,0.2,1.9,4.7,2.7,6.1c2.3,3.6,5.7,7.3,9.1,9.8
			c4.2,3,14.4,10.1,19.7,10.1c7,0,14.7-1.7,21.8-2.4c8.5-0.9,17.6-5.2,25.7-7.8c15.2-4.9,20-22.2,17.7-36.4
			c-1.3-7.8-2-15.7-4.1-23.4c-2-7.6-6.2-13.7-9.6-20.7c-7.2-14.9-20.7-17-35.4-20c-5.8-1.2-12.9,1.5-18.8,1.5
			c-8.9-0.1-12.2,0.9-18.7,6.9c-4.3,3.9-9.1,9.3-11.6,14.4c-1.4,2.7-2.9,5.1-3.7,8.1C1883.2,774.8,1888.5,787.7,1889.6,794z"/>
		<path fill-rule="evenodd" clip-rule="evenodd" fill="#28305A" d="M1974.7,777.7c0,5-18.9,24.1-50.6,37.9
			c-8.8,3.8-12.6-19.6-13.6-27.2c-0.9-7.7-1.3-15.1-1.3-24.3c0-6.1,4.3-25.1,12.4-22.4C1954.6,753,1974.7,772.5,1974.7,777.7z"/>
	</g>
	<g>
		<path fill="#436668" d="M54.9,763.2c-2.3-14.2,2.5-31.5,17.7-36.4c8.1-2.6,17.2-6.9,25.7-7.8c7.1-0.7,14.8-2.4,21.8-2.4
			c5.3,0,15.5,7,19.7,10.1c3.4,2.4,6.9,6.1,9.1,9.8c0.8,1.3,1.9,5.9,2.7,6.1c0.2,0,0.3,4.7,1.6,5.8c1.9,1.5,2.2,5.3,2.6,7.5
			c1.2,6.2,6.4,19.1,0.9,40.6c-0.8,3-2.3,5.4-3.7,8.1c-2.5,5-7.3,10.4-11.6,14.4c-6.6,6-9.9,7-18.7,6.9c-5.9,0-13,2.7-18.8,1.5
			c-14.7-3-28.2-5.2-35.4-20c-3.4-7-7.6-13.1-9.6-20.7C56.9,778.8,56.2,771,54.9,763.2z"/>
		<path fill="#28305A" d="M155.2,734.4c4.6,8.6,5.6,17.1,8.3,26.3c5.6,19.3,0.6,41.4-9.9,57.9c-4.5,7.1-8,11.2-16.1,13.1
			c-3.6,0.8-5.8,2.1-9.2,3.6c-4.9,2.1-10.7,1.9-15.8,3.5c-16.2,5.4-34.3-5.2-46.4-15.6c-5.4-4.6-9.6-15.6-11.4-22.2
			c-2.1-7.9-4.4-16-4.4-24.3c0,0,0,0,0,0h0c0,0,0,0,0,0c-3.6-7.1-2-15.2-2.5-23c-0.6-8.3-0.2-16.1,5.1-22.9
			c4.5-5.6,8.6-7.6,15.4-10.1c7-2.5,14.8-6.7,22.3-7.2c7.4-0.5,15.3-3.2,22.7-4.2c9.1-1.2,20,4.4,27.2,9.2
			C147.1,723.1,151.4,727.4,155.2,734.4z M155.9,755.7c-0.4-2.1-0.6-6-2.6-7.5c-1.4-1-1.4-5.7-1.6-5.8c-0.9-0.2-1.9-4.7-2.7-6.1
			c-2.3-3.6-5.7-7.3-9.1-9.8c-4.2-3-14.4-10.1-19.7-10.1c-7,0-14.7,1.7-21.8,2.4c-8.5,0.9-17.6,5.2-25.7,7.8
			c-15.2,4.9-20,22.2-17.7,36.4c1.3,7.8,2,15.7,4.1,23.4c2,7.6,6.2,13.7,9.6,20.7c7.2,14.9,20.7,17,35.4,20
			c5.8,1.2,12.9-1.5,18.8-1.5c8.9,0.1,12.2-0.9,18.7-6.9c4.3-3.9,9.1-9.3,11.6-14.4c1.4-2.7,2.9-5.1,3.7-8.1
			C162.3,774.8,157.1,761.9,155.9,755.7z"/>
		<path fill-rule="evenodd" clip-rule="evenodd" fill="#28305A" d="M70.8,772c0-5,18.9-24.1,50.6-37.9c8.8-3.8,12.6,19.6,13.6,27.2
			c0.9,7.7,1.3,15.1,1.3,24.3c0,6.1-4.3,25.1-12.4,22.4C91,796.7,70.8,777.2,70.8,772z"/>
	</g>
	<g>
		<path fill="#658A92" d="M1043.5,100.4c3.2,8.4,6.9,15.8,6,25c-0.7,7.9-5.9,15.9-14.6,21.8c-5.7,3.9-21,7.3-26.2,6.6
			c-26.3-3.4-32.8-14.5-37.4-34.2c-1.2-5.1-4.1-24,4.2-34.4c5.2-6.5,16.5-15.1,26.2-14.3c9.4,0.8,17.1,2.5,24.4,8
			C1037.5,87.4,1042.5,97.6,1043.5,100.4z"/>
		<path fill="#28305A" d="M1054,118.5c1.9,4.4,0.7,11.3-1.2,16.2c-1.7,4.3-4.8,12.2-8.9,14.6c-3.9,2.2-8.4,5.1-12.7,6.7
			c-6.2,2.2-13.6,3.7-20.1,4.1c-5.9,0.4-11.2-1.1-17.1-1.9c-6.3-0.8-9.5-4.9-13.8-9c-9.6-9.3-16.5-20-17.7-33.4
			c-1.1-12.1,2.9-23,9-33.2c4-6.7,6.6-11.2,14.1-13.9c6.8-2.4,12.7-3.9,20-2.9c6.8,0.9,15.7,3.3,21.5,7c11.3,7.3,19,20,21.3,24.7
			C1051.6,104.4,1054.5,118.7,1054,118.5z M1049.5,125.4c0.9-9.2-2.8-16.7-6-25c-1.1-2.7-6-13-17.2-21.4c-7.3-5.5-15.1-7.3-24.4-8
			c-9.7-0.8-21,7.8-26.2,14.3c-8.3,10.5-5.4,29.3-4.2,34.4c4.5,19.6,11.1,30.8,37.4,34.2c5.2,0.7,20.4-2.7,26.2-6.6
			C1043.7,141.3,1048.8,133.3,1049.5,125.4z"/>
		<path fill-rule="evenodd" clip-rule="evenodd" fill="#28305A" d="M1023.8,103.5c-0.7-0.4-2.7,1.6-3,1.7c-1.9,1.1-3.7,0.5-5.8,0.5
			c-3.3-0.1-8.1-0.3-11.3-1.1c-2.7-0.8-6.7-0.7-9.1-2.6c-1.7-1.4-6.9-6.5-1.6-7c6.6-0.6,13.4,2.9,20.1,2.1c3.2-0.4,9.1-2.1,12.4-1.2
			C1030.5,97.3,1025.9,102.1,1023.8,103.5C1023.4,103.3,1024.4,103.1,1023.8,103.5z"/>
		<path fill-rule="evenodd" clip-rule="evenodd" fill="#28305A" d="M991.5,118.9c-1.5-0.3-2.6-1.5-2.4-3c0.3-2.6,3.2-2.4,5.1-2.8
			c8.6-1.8,17.2,0.1,25.8,0.9c2,0.2,9.9-0.4,7.9,3.7c-2,4.1-8.3,2.8-12,2.6c-5.5-0.3-10.5-1.2-16-0.4
			C999.2,119.9,992.5,119.1,991.5,118.9z"/>
		<path fill-rule="evenodd" clip-rule="evenodd" fill="#28305A" d="M998.6,135.9c-2.4-0.4-6.8,0.1-8.9-1.2c-3.5-2.2-1.1-5.3,1.9-5.8
			c2.1-0.3,7.5-1.4,9.2-0.7c3.9,1.6,8.1,2.1,12.3,2.7c3.4,0.5,6.9,0.9,10.3,1.3c1.1,0.1,1.1,2.1,1,2.9c-0.2,2.1-2.3,2.3-4,2.3
			C1018.6,137.6,998.6,135.9,998.6,135.9C997.3,135.7,998.6,135.8,998.6,135.9z"/>
		<path fill="#436668" d="M1043.5,100.4c3.2,8.4,6.9,15.8,6,25c-0.7,7.9-5.9,15.9-14.6,21.8c-5.7,3.9-21,7.3-26.2,6.6
			c-26.3-3.4-32.8-14.5-37.4-34.2c-1.2-5.1-4.1-24,4.2-34.4c5.2-6.5,16.5-15.1,26.2-14.3c9.4,0.8,17.1,2.5,24.4,8
			C1037.5,87.4,1042.5,97.6,1043.5,100.4z"/>
		<path fill="#28305A" d="M1054,118.5c1.9,4.4,0.7,11.3-1.2,16.2c-1.7,4.3-4.8,12.2-8.9,14.6c-3.9,2.2-8.4,5.1-12.7,6.7
			c-6.2,2.2-13.6,3.7-20.1,4.1c-5.9,0.4-11.2-1.1-17.1-1.9c-6.3-0.8-9.5-4.9-13.8-9c-9.6-9.3-16.5-20-17.7-33.4
			c-1.1-12.1,2.9-23,9-33.2c4-6.7,6.6-11.2,14.1-13.9c6.8-2.4,12.7-3.9,20-2.9c6.8,0.9,15.7,3.3,21.5,7c11.3,7.3,19,20,21.3,24.7
			C1051.6,104.4,1054.5,118.7,1054,118.5z M1049.5,125.4c0.9-9.2-2.8-16.7-6-25c-1.1-2.7-6-13-17.2-21.4c-7.3-5.5-15.1-7.3-24.4-8
			c-9.7-0.8-21,7.8-26.2,14.3c-8.3,10.5-5.4,29.3-4.2,34.4c4.5,19.6,11.1,30.8,37.4,34.2c5.2,0.7,20.4-2.7,26.2-6.6
			C1043.7,141.3,1048.8,133.3,1049.5,125.4z"/>
		<path fill-rule="evenodd" clip-rule="evenodd" fill="#28305A" d="M1023.8,103.5c-0.7-0.4-2.7,1.6-3,1.7c-1.9,1.1-3.7,0.5-5.8,0.5
			c-3.3-0.1-8.1-0.3-11.3-1.1c-2.7-0.8-6.7-0.7-9.1-2.6c-1.7-1.4-6.9-6.5-1.6-7c6.6-0.6,13.4,2.9,20.1,2.1c3.2-0.4,9.1-2.1,12.4-1.2
			C1030.5,97.3,1025.9,102.1,1023.8,103.5C1023.4,103.3,1024.4,103.1,1023.8,103.5z"/>
		<path fill-rule="evenodd" clip-rule="evenodd" fill="#28305A" d="M991.5,118.9c-1.5-0.3-2.6-1.5-2.4-3c0.3-2.6,3.2-2.4,5.1-2.8
			c8.6-1.8,17.2,0.1,25.8,0.9c2,0.2,9.9-0.4,7.9,3.7c-2,4.1-8.3,2.8-12,2.6c-5.5-0.3-10.5-1.2-16-0.4
			C999.2,119.9,992.5,119.1,991.5,118.9z"/>
		<path fill-rule="evenodd" clip-rule="evenodd" fill="#28305A" d="M998.6,135.9c-2.4-0.4-6.8,0.1-8.9-1.2c-3.5-2.2-1.1-5.3,1.9-5.8
			c2.1-0.3,7.5-1.4,9.2-0.7c3.9,1.6,8.1,2.1,12.3,2.7c3.4,0.5,6.9,0.9,10.3,1.3c1.1,0.1,1.1,2.1,1,2.9c-0.2,2.1-2.3,2.3-4,2.3
			C1018.6,137.6,998.6,135.9,998.6,135.9C997.3,135.7,998.6,135.8,998.6,135.9z"/>
	</g>
	<g>
		<path fill="#658A92" d="M1413,120.7c1.7,10.6-1.9,23.6-13.3,27.3c-6.1,2-12.9,5.2-19.3,5.9c-5.3,0.5-11.1,1.8-16.4,1.8
			c-4,0-11.7-5.3-14.8-7.6c-2.6-1.8-5.2-4.6-6.8-7.3c-0.6-1-1.4-4.4-2.1-4.6c-0.2,0-0.2-3.5-1.2-4.3c-1.4-1.1-1.6-4-1.9-5.6
			c-0.9-4.7-4.8-14.3-0.7-30.5c0.6-2.2,1.7-4,2.7-6.1c1.9-3.8,5.5-7.8,8.7-10.8c4.9-4.5,7.4-5.3,14.1-5.2c4.4,0,9.8-2,14.1-1.1
			c11,2.2,21.1,3.9,26.5,15c2.5,5.2,5.7,9.8,7.2,15.5C1411.4,108.9,1412,114.8,1413,120.7z"/>
		<path fill="#28305A" d="M1337.7,142.2c-3.5-6.5-4.2-12.8-6.2-19.7c-4.2-14.5-0.4-31.1,7.4-43.4c3.4-5.4,6-8.4,12-9.9
			c2.7-0.6,4.3-1.6,6.9-2.7c3.7-1.6,8-1.4,11.8-2.7c12.2-4,25.8,3.9,34.8,11.7c4,3.5,7.2,11.7,8.5,16.7c1.6,5.9,3.3,12,3.3,18.2
			c0,0,0,0,0,0h0c0,0,0,0,0,0c2.7,5.3,1.5,11.4,1.9,17.2c0.4,6.2,0.2,12.1-3.8,17.2c-3.3,4.2-6.5,5.7-11.6,7.5
			c-5.2,1.9-11.1,5-16.7,5.4c-5.6,0.3-11.5,2.4-17,3.1c-6.8,0.9-15-3.3-20.4-6.9C1343.8,150.7,1340.6,147.5,1337.7,142.2z
			 M1337.2,126.3c0.3,1.6,0.5,4.5,1.9,5.6c1,0.8,1.1,4.3,1.2,4.3c0.7,0.2,1.4,3.6,2.1,4.6c1.7,2.7,4.3,5.5,6.8,7.3
			c3.1,2.3,10.8,7.6,14.8,7.6c5.3,0,11-1.3,16.4-1.8c6.4-0.7,13.2-3.9,19.3-5.9c11.4-3.7,15-16.7,13.3-27.3
			c-1-5.9-1.5-11.7-3.1-17.5c-1.5-5.7-4.6-10.3-7.2-15.5c-5.4-11.2-15.5-12.8-26.5-15c-4.3-0.9-9.7,1.1-14.1,1.1
			c-6.7,0-9.1,0.7-14.1,5.2c-3.2,2.9-6.8,7-8.7,10.8c-1,2-2.2,3.8-2.7,6.1C1332.4,111.9,1336.3,121.6,1337.2,126.3z"/>
		<path fill-rule="evenodd" clip-rule="evenodd" fill="#28305A" d="M1367.6,99c0.3,3,0.6,12,0.8,15.2c0.4,6.2,2.3,12.9,1.8,19
			c-0.3,3.2-8.2,2.2-10.2,1.5c-5.6-1.9-4.9-11.1-5.6-15.7c-0.8-4.7-1.3-9.6-1.4-14.4c-0.1-3.7-0.2-12.6,4.9-12.6
			C1358.6,92.1,1366.8,90.1,1367.6,99z"/>
		<path fill-rule="evenodd" clip-rule="evenodd" fill="#28305A" d="M1384.1,133.1c-1.1-1-1.4-12.5-1.6-14.3
			c-0.3-2.6-0.9-19.5-0.7-20.7c-0.2-1.4,1.6-3.5,4.3-5c1.4-0.8,5.3-0.6,6.5,0.4c5.4,4.1,3.2,7.8,3.9,13.9c0.6,5.4,1.1,11.1,1,16.5
			c-0.1,5.7,1.2,10.8-5.8,10.8C1390.2,134.6,1385.4,134.3,1384.1,133.1z"/>
		<path fill="#436668" d="M1413,120.7c1.7,10.6-1.9,23.6-13.3,27.3c-6.1,2-12.9,5.2-19.3,5.9c-5.3,0.5-11.1,1.8-16.4,1.8
			c-4,0-11.7-5.3-14.8-7.6c-2.6-1.8-5.2-4.6-6.8-7.3c-0.6-1-1.4-4.4-2.1-4.6c-0.2,0-0.2-3.5-1.2-4.3c-1.4-1.1-1.6-4-1.9-5.6
			c-0.9-4.7-4.8-14.3-0.7-30.5c0.6-2.2,1.7-4,2.7-6.1c1.9-3.8,5.5-7.8,8.7-10.8c4.9-4.5,7.4-5.3,14.1-5.2c4.4,0,9.8-2,14.1-1.1
			c11,2.2,21.1,3.9,26.5,15c2.5,5.2,5.7,9.8,7.2,15.5C1411.4,108.9,1412,114.8,1413,120.7z"/>
		<path fill="#28305A" d="M1337.7,142.2c-3.5-6.5-4.2-12.8-6.2-19.7c-4.2-14.5-0.4-31.1,7.4-43.4c3.4-5.4,6-8.4,12-9.9
			c2.7-0.6,4.3-1.6,6.9-2.7c3.7-1.6,8-1.4,11.8-2.7c12.2-4,25.8,3.9,34.8,11.7c4,3.5,7.2,11.7,8.5,16.7c1.6,5.9,3.3,12,3.3,18.2
			c0,0,0,0,0,0h0c0,0,0,0,0,0c2.7,5.3,1.5,11.4,1.9,17.2c0.4,6.2,0.2,12.1-3.8,17.2c-3.3,4.2-6.5,5.7-11.6,7.5
			c-5.2,1.9-11.1,5-16.7,5.4c-5.6,0.3-11.5,2.4-17,3.1c-6.8,0.9-15-3.3-20.4-6.9C1343.8,150.7,1340.6,147.5,1337.7,142.2z
			 M1337.2,126.3c0.3,1.6,0.5,4.5,1.9,5.6c1,0.8,1.1,4.3,1.2,4.3c0.7,0.2,1.4,3.6,2.1,4.6c1.7,2.7,4.3,5.5,6.8,7.3
			c3.1,2.3,10.8,7.6,14.8,7.6c5.3,0,11-1.3,16.4-1.8c6.4-0.7,13.2-3.9,19.3-5.9c11.4-3.7,15-16.7,13.3-27.3
			c-1-5.9-1.5-11.7-3.1-17.5c-1.5-5.7-4.6-10.3-7.2-15.5c-5.4-11.2-15.5-12.8-26.5-15c-4.3-0.9-9.7,1.1-14.1,1.1
			c-6.7,0-9.1,0.7-14.1,5.2c-3.2,2.9-6.8,7-8.7,10.8c-1,2-2.2,3.8-2.7,6.1C1332.4,111.9,1336.3,121.6,1337.2,126.3z"/>
		<path fill-rule="evenodd" clip-rule="evenodd" fill="#28305A" d="M1367.6,99c0.3,3,0.6,12,0.8,15.2c0.4,6.2,2.3,12.9,1.8,19
			c-0.3,3.2-8.2,2.2-10.2,1.5c-5.6-1.9-4.9-11.1-5.6-15.7c-0.8-4.7-1.3-9.6-1.4-14.4c-0.1-3.7-0.2-12.6,4.9-12.6
			C1358.6,92.1,1366.8,90.1,1367.6,99z"/>
		<path fill-rule="evenodd" clip-rule="evenodd" fill="#28305A" d="M1384.1,133.1c-1.1-1-1.4-12.5-1.6-14.3
			c-0.3-2.6-0.9-19.5-0.7-20.7c-0.2-1.4,1.6-3.5,4.3-5c1.4-0.8,5.3-0.6,6.5,0.4c5.4,4.1,3.2,7.8,3.9,13.9c0.6,5.4,1.1,11.1,1,16.5
			c-0.1,5.7,1.2,10.8-5.8,10.8C1390.2,134.6,1385.4,134.3,1384.1,133.1z"/>
	</g>
	<g>
		<path fill="#658A92" d="M1233.1,110.6c1.7,7.2,2.9,15,1.3,22.4c-1.7,7.6-2.4,11.3-8.5,16.6c-4.8,4.2-12.2,4-18,3.8
			c-5.4-0.1-11.9,2-17.1,0.9c-5.9-1.3-11.5-0.7-17.5-2.1c-3.1-0.7-6.4-0.9-8.9-3.1c-2.2-1.9-3.5-4.6-5.7-6.4
			c-4.1-3.5-4.6-10.1-7.5-15c-2.6-4.4-2.8-12.2-2.6-17.1c0.2-4.3,3-14.3,7.9-22.2c-0.6,1.1,6.4-7.3,8-8.8c1.5-1.3,3.7-1.8,4.8-2.9
			c4.4-4,12-5.1,17.7-7.7c3.3-1.5,6.6-0.4,10.1-0.3c3.4,0.1,7.1-0.5,10.3,1.1c2.8,1.3,6.6,1,8.5,4.4c3,5.2,7.8,9.2,10.7,14.5
			C1230.4,95.7,1231.4,103.1,1233.1,110.6z"/>
		<path fill="#28305A" d="M1236.2,101.4c3.6,13.7,4.2,26.6,2.2,40.5c-0.8,5.3-8.5,12.7-13.3,14.2c-17.5,5.7-35.6,3.6-43.2,3.5
			c-3.4,0-6.6,0.1-10-0.5c-2.2-0.4-5.9-2.1-7.9-2c-11.8,0.4-16.5-19.7-18.8-27.8c-3.5-12.5-2.8-30.5,5-41.3
			c3.8-5.2,7.3-9.2,11.8-13.7c4.6-4.5,11.4-5.3,17.2-7.6c12.3-5,25.3-5.3,37.1,1.5C1227.4,74.7,1233.1,89.3,1236.2,101.4z
			 M1156.6,88.4c-4.9,7.9-7.7,18-7.9,22.2c-0.3,5,0,12.8,2.6,17.1c2.9,4.9,3.4,11.5,7.5,15c2.2,1.9,3.5,4.5,5.7,6.4
			c2.5,2.2,5.8,2.3,8.9,3.1c6,1.4,11.6,0.8,17.5,2.1c5.2,1.1,11.7-1.1,17.1-0.9c5.8,0.2,13.2,0.4,18-3.8c6.1-5.3,6.8-9,8.5-16.6
			c1.7-7.4,0.4-15.2-1.3-22.4c-1.7-7.5-2.7-14.9-6.4-21.8c-2.9-5.3-7.7-9.3-10.7-14.5c-1.9-3.4-5.7-3.1-8.5-4.4
			c-3.2-1.5-6.8-1-10.3-1.1c-3.5-0.1-6.8-1.2-10.1,0.3c-5.7,2.6-13.3,3.6-17.7,7.7c-1.2,1.1-3.4,1.6-4.8,2.9
			C1163,81.1,1156,89.5,1156.6,88.4z"/>
		<path fill-rule="evenodd" clip-rule="evenodd" fill="#28305A" d="M1212.8,112.4c-0.4-4.9-0.1-10.2-2.1-11.5
			c-6.6-4-20.8-3.4-27.7,0.2c-2.4,1.2-2.8,15-2.8,16.3c0.1,2.8,0.3,11.6-1.7,15.4c-2.2,4.1-12.2,3.2-14.6,1.1
			c-4.7-4.1-7-9.4-2.4-14.8c2.1-2.5,5.7-2.2,8.8-1.4c4,0.9,4.9-4.6,4.9-7.6c0-7.1-0.9-14.1,0.6-21c1-4.4,12.2-4,14.9-3.6
			c3,0.5,26.1,0.1,27.8,3.6c1.9,3.8,0.4,14,0.2,19.6c-0.1,5.6,1.1,11,1.3,16.3c0.2,3.6,0.6,5.9,0,9.2c-0.6,3.5-2.2,3.9-6.9,3.6
			c-4.4-0.2-17.9-2.3-16-9.4c2.4-9.2,7.8-9,15.8-8.5C1212.6,117.9,1213.1,115.8,1212.8,112.4z"/>
		<path fill="#436668" d="M1233.1,110.6c1.7,7.2,2.9,15,1.3,22.4c-1.7,7.6-2.4,11.3-8.5,16.6c-4.8,4.2-12.2,4-18,3.8
			c-5.4-0.1-11.9,2-17.1,0.9c-5.9-1.3-11.5-0.7-17.5-2.1c-3.1-0.7-6.4-0.9-8.9-3.1c-2.2-1.9-3.5-4.6-5.7-6.4
			c-4.1-3.5-4.6-10.1-7.5-15c-2.6-4.4-2.8-12.2-2.6-17.1c0.2-4.3,3-14.3,7.9-22.2c-0.6,1.1,6.4-7.3,8-8.8c1.5-1.3,3.7-1.8,4.8-2.9
			c4.4-4,12-5.1,17.7-7.7c3.3-1.5,6.6-0.4,10.1-0.3c3.4,0.1,7.1-0.5,10.3,1.1c2.8,1.3,6.6,1,8.5,4.4c3,5.2,7.8,9.2,10.7,14.5
			C1230.4,95.7,1231.4,103.1,1233.1,110.6z"/>
		<path fill="#28305A" d="M1236.2,101.4c3.6,13.7,4.2,26.6,2.2,40.5c-0.8,5.3-8.5,12.7-13.3,14.2c-17.5,5.7-35.6,3.6-43.2,3.5
			c-3.4,0-6.6,0.1-10-0.5c-2.2-0.4-5.9-2.1-7.9-2c-11.8,0.4-16.5-19.7-18.8-27.8c-3.5-12.5-2.8-30.5,5-41.3
			c3.8-5.2,7.3-9.2,11.8-13.7c4.6-4.5,11.4-5.3,17.2-7.6c12.3-5,25.3-5.3,37.1,1.5C1227.4,74.7,1233.1,89.3,1236.2,101.4z
			 M1156.6,88.4c-4.9,7.9-7.7,18-7.9,22.2c-0.3,5,0,12.8,2.6,17.1c2.9,4.9,3.4,11.5,7.5,15c2.2,1.9,3.5,4.5,5.7,6.4
			c2.5,2.2,5.8,2.3,8.9,3.1c6,1.4,11.6,0.8,17.5,2.1c5.2,1.1,11.7-1.1,17.1-0.9c5.8,0.2,13.2,0.4,18-3.8c6.1-5.3,6.8-9,8.5-16.6
			c1.7-7.4,0.4-15.2-1.3-22.4c-1.7-7.5-2.7-14.9-6.4-21.8c-2.9-5.3-7.7-9.3-10.7-14.5c-1.9-3.4-5.7-3.1-8.5-4.4
			c-3.2-1.5-6.8-1-10.3-1.1c-3.5-0.1-6.8-1.2-10.1,0.3c-5.7,2.6-13.3,3.6-17.7,7.7c-1.2,1.1-3.4,1.6-4.8,2.9
			C1163,81.1,1156,89.5,1156.6,88.4z"/>
		<path fill-rule="evenodd" clip-rule="evenodd" fill="#28305A" d="M1212.8,112.4c-0.4-4.9-0.1-10.2-2.1-11.5
			c-6.6-4-20.8-3.4-27.7,0.2c-2.4,1.2-2.8,15-2.8,16.3c0.1,2.8,0.3,11.6-1.7,15.4c-2.2,4.1-12.2,3.2-14.6,1.1
			c-4.7-4.1-7-9.4-2.4-14.8c2.1-2.5,5.7-2.2,8.8-1.4c4,0.9,4.9-4.6,4.9-7.6c0-7.1-0.9-14.1,0.6-21c1-4.4,12.2-4,14.9-3.6
			c3,0.5,26.1,0.1,27.8,3.6c1.9,3.8,0.4,14,0.2,19.6c-0.1,5.6,1.1,11,1.3,16.3c0.2,3.6,0.6,5.9,0,9.2c-0.6,3.5-2.2,3.9-6.9,3.6
			c-4.4-0.2-17.9-2.3-16-9.4c2.4-9.2,7.8-9,15.8-8.5C1212.6,117.9,1213.1,115.8,1212.8,112.4z"/>
	</g>
	<g>
		<path fill="#658A92" d="M1599.9,130.1C1599.9,130.1,1599.9,130.2,1599.9,130.1C1599.9,130.2,1599.9,130.2,1599.9,130.1
			C1599.9,130.2,1599.9,130.2,1599.9,130.1c0,0.1,0,0.1,0,0.1c0,0,0,0,0,0c-2.2,5.2-15.9,17.2-21.8,19.9c-9,4.1-23.3,4.6-27.9,4.4
			c-5.1-0.2-9.9-1.5-14.3-3.3c-9.7-3.9-17.3-10.5-20.7-15.2c-2.2-3.1-4.4-9.6-5.3-13.3c-2.8-11.8-0.1-21.7,6.6-31.9
			c3.4-5.3,9.9-13.1,21.6-15.8c0.4-0.1,0.8-0.2,1.2-0.2c14.2-2.7,25.9,0.7,35.1,3.9c2.3,0.8,27,15.3,30,33.2
			C1605.4,118.2,1602.5,125.8,1599.9,130.1z M1600,130C1600,129.9,1600,129.8,1600,130L1600,130z"/>
		<path fill="#28305A" d="M1607,104.1c-3.2-8.8-7.8-18.5-16.4-24.5c-6-4.3-13.8-6.5-20.4-8.8c-4.2-1.5-18.1-2.4-26.1-1.2
			c-2.7,0.6-5,1.2-7,1.8c-8.8,2.4-12.2,4.1-13.9,5c-3.5,1.7-6.5,4.6-8.8,7.8c-4.6,6.5-10.2,21.2-10.3,21.8
			c-2.4,27,6.9,33.7,11.8,38.8c3.2,3.4,9.9,7.4,18.3,10.7c2.7,1.1,5.5,2,8.5,2.9c4.4,1.3,20.1,2.1,24.8,1.9c6-0.2,13.5-3,18.1-6.9
			c8.7-7.4,15.7-14.1,20.5-24.8c0.7-1.6,3.7-12,3.7-12.7C1610.2,111.7,1608.2,107.5,1607,104.1z M1599.9,130.1c0,0-0.5,0-0.5,0
			c0,0-0.5,0-0.5,0s0,0,0,0c0,0,0,0,0,0c0,0,0,0,0,0c0,0,0.4,0,0.4,0c-2.2,5.2-15.6,17.2-21.6,19.9c-9,4.1-23.2,4.6-27.8,4.4
			c-5.1-0.2-9.8-1.5-14.2-3.3c-9.7-3.9-17.3-10.5-20.7-15.2c-2.2-3.1-4.4-9.6-5.3-13.3c-2.8-11.8-0.1-21.7,6.6-31.9
			c3.4-5.3,9.9-13.1,21.6-15.8c0.4-0.1,0.8-0.2,1.2-0.2c14.2-2.7,25.9,0.7,35.1,3.9c2.3,0.8,27,15.3,30,33.2
			C1605.4,118.2,1602.5,125.8,1599.9,130.1z"/>
		<path fill-rule="evenodd" clip-rule="evenodd" fill="#28305A" d="M1531.9,115.3c0.4-2.7-11.9-1.5-13.7-3.1
			c-2.9-2.5,3.5-7.8,5.5-9.6c-0.1,0,14.9-21.2,18.1-21.9c5.3-1.3,15,6.2,18.7,8c4.1,2,12.6,7.9,16.8,10.6c1.9,1.2,11.2,7.8,9.3,10.6
			c-2.6,3.7-10.9-0.6-13.6,2.9c-2,2.5,0.9,23.2,1.2,28c0.2,3.7-38.4,2.4-40.8,1.2C1529.1,140.1,1531.7,117.3,1531.9,115.3z
			 M1562.5,136.6c5.1,0.3,5.6,0.9,5.6-4.2c-2-4.2,0.3-10.8-1-15.3c-1.6-6,3.1-10,8.5-12c-5.8-6.4-24.7-15.9-29.7-18.3
			c-4.9,3.7-11.5,12-16.6,21c2-0.4,7.9,0.4,9.1,2.2c0.6,0.9-0.7,5.5-1,6.6c-0.8,3.4-0.3,17.3-0.1,19.4
			C1537.5,137.8,1560,136.4,1562.5,136.6z"/>
		<path fill="#436668" d="M1599.9,130.1C1599.9,130.1,1599.9,130.2,1599.9,130.1C1599.9,130.2,1599.9,130.2,1599.9,130.1
			C1599.9,130.2,1599.9,130.2,1599.9,130.1c0,0.1,0,0.1,0,0.1c0,0,0,0,0,0c-2.2,5.2-15.9,17.2-21.8,19.9c-9,4.1-23.3,4.6-27.9,4.4
			c-5.1-0.2-9.9-1.5-14.3-3.3c-9.7-3.9-17.3-10.5-20.7-15.2c-2.2-3.1-4.4-9.6-5.3-13.3c-2.8-11.8-0.1-21.7,6.6-31.9
			c3.4-5.3,9.9-13.1,21.6-15.8c0.4-0.1,0.8-0.2,1.2-0.2c14.2-2.7,25.9,0.7,35.1,3.9c2.3,0.8,27,15.3,30,33.2
			C1605.4,118.2,1602.5,125.8,1599.9,130.1z M1600,130C1600,129.9,1600,129.8,1600,130L1600,130z"/>
		<path fill="#28305A" d="M1607,104.1c-3.2-8.8-7.8-18.5-16.4-24.5c-6-4.3-13.8-6.5-20.4-8.8c-4.2-1.5-18.1-2.4-26.1-1.2
			c-2.7,0.6-5,1.2-7,1.8c-8.8,2.4-12.2,4.1-13.9,5c-3.5,1.7-6.5,4.6-8.8,7.8c-4.6,6.5-10.2,21.2-10.3,21.8
			c-2.4,27,6.9,33.7,11.8,38.8c3.2,3.4,9.9,7.4,18.3,10.7c2.7,1.1,5.5,2,8.5,2.9c4.4,1.3,20.1,2.1,24.8,1.9c6-0.2,13.5-3,18.1-6.9
			c8.7-7.4,15.7-14.1,20.5-24.8c0.7-1.6,3.7-12,3.7-12.7C1610.2,111.7,1608.2,107.5,1607,104.1z M1599.9,130.1c0,0-0.5,0-0.5,0
			c0,0-0.5,0-0.5,0s0,0,0,0c0,0,0,0,0,0c0,0,0,0,0,0c0,0,0.4,0,0.4,0c-2.2,5.2-15.6,17.2-21.6,19.9c-9,4.1-23.2,4.6-27.8,4.4
			c-5.1-0.2-9.8-1.5-14.2-3.3c-9.7-3.9-17.3-10.5-20.7-15.2c-2.2-3.1-4.4-9.6-5.3-13.3c-2.8-11.8-0.1-21.7,6.6-31.9
			c3.4-5.3,9.9-13.1,21.6-15.8c0.4-0.1,0.8-0.2,1.2-0.2c14.2-2.7,25.9,0.7,35.1,3.9c2.3,0.8,27,15.3,30,33.2
			C1605.4,118.2,1602.5,125.8,1599.9,130.1z"/>
		<path fill-rule="evenodd" clip-rule="evenodd" fill="#28305A" d="M1531.9,115.3c0.4-2.7-11.9-1.5-13.7-3.1
			c-2.9-2.5,3.5-7.8,5.5-9.6c-0.1,0,14.9-21.2,18.1-21.9c5.3-1.3,15,6.2,18.7,8c4.1,2,12.6,7.9,16.8,10.6c1.9,1.2,11.2,7.8,9.3,10.6
			c-2.6,3.7-10.9-0.6-13.6,2.9c-2,2.5,0.9,23.2,1.2,28c0.2,3.7-38.4,2.4-40.8,1.2C1529.1,140.1,1531.7,117.3,1531.9,115.3z
			 M1562.5,136.6c5.1,0.3,5.6,0.9,5.6-4.2c-2-4.2,0.3-10.8-1-15.3c-1.6-6,3.1-10,8.5-12c-5.8-6.4-24.7-15.9-29.7-18.3
			c-4.9,3.7-11.5,12-16.6,21c2-0.4,7.9,0.4,9.1,2.2c0.6,0.9-0.7,5.5-1,6.6c-0.8,3.4-0.3,17.3-0.1,19.4
			C1537.5,137.8,1560,136.4,1562.5,136.6z"/>
	</g>
	<g>
		<path fill="#658A92" d="M860.8,99c3.2,8.4,6.9,15.8,6,25c-0.7,7.9-5.9,15.9-14.6,21.8c-5.7,3.9-21,7.3-26.2,6.6
			c-26.3-3.4-32.8-14.5-37.4-34.2c-1.2-5.1-4.1-24,4.2-34.4c5.2-6.5,16.5-15.1,26.2-14.3c9.4,0.8,17.1,2.5,24.4,8
			C854.8,86,859.7,96.3,860.8,99z"/>
		<path fill="#28305A" d="M871.3,117.2c1.9,4.4,0.7,11.3-1.2,16.2c-1.7,4.3-4.8,12.2-8.9,14.6c-3.9,2.2-8.4,5.1-12.7,6.7
			c-6.2,2.2-13.6,3.7-20.1,4.1c-5.9,0.4-11.2-1.1-17.1-1.9c-6.3-0.8-9.5-4.9-13.8-9c-9.6-9.3-16.5-20-17.7-33.4
			c-1.1-12.1,2.9-23,9-33.2c4-6.7,6.6-11.2,14.1-13.9c6.8-2.4,12.7-3.9,20-2.9c6.8,0.9,15.7,3.3,21.5,7c11.3,7.3,19,20,21.3,24.7
			C868.9,103.1,871.8,117.4,871.3,117.2z M866.8,124.1c0.9-9.2-2.8-16.7-6-25c-1.1-2.7-6-13-17.2-21.4c-7.3-5.5-15.1-7.3-24.4-8
			c-9.7-0.8-21,7.8-26.2,14.3c-8.3,10.5-5.4,29.3-4.2,34.4c4.5,19.6,11.1,30.8,37.4,34.2c5.2,0.7,20.4-2.7,26.2-6.6
			C860.9,140,866,132,866.8,124.1z"/>
		<path fill="#28305A" d="M813.9,85.1c6.5-7.2,28,6.2,25.9,14.5c-2.6,10.5-22.7,12.4-23,28.1c-0.1,3.3,7.3,2.8,7.1-0.1
			c-0.4-9.4,4.4-8.8,8.2-12.1c8.9-7.8,18.8-13,9.3-29.4c-2.7-4.7-12.5-9.2-21.2-9.2c-5.5,0-10.5,2.3-13.1,5.6c-8.5,10.6-4,17.8,5,24
			c2.8,1.9,6.8-1.4,4-3.3C816.1,103.1,805.9,94,813.9,85.1z"/>
		<path fill="#28305A" d="M824.8,135.5c-1.2-0.4-3.9-1-5.6,0c-2.6,1.6-3.3,2.9-3.7,5.5c-0.4,2.8,2.3,5,5.5,5.3
			c3.5,0.3,6.7-1.4,7.1-4.4C828.5,138.2,826.4,136.2,824.8,135.5z M821.1,141.7C821.1,141.7,821.1,141.7,821.1,141.7
			C821.1,141.7,821.1,141.7,821.1,141.7C821.1,141.7,821.1,141.7,821.1,141.7z"/>
		<path fill="#436668" d="M860.8,99c3.2,8.4,6.9,15.8,6,25c-0.7,7.9-5.9,15.9-14.6,21.8c-5.7,3.9-21,7.3-26.2,6.6
			c-26.3-3.4-32.8-14.5-37.4-34.2c-1.2-5.1-4.1-24,4.2-34.4c5.2-6.5,16.5-15.1,26.2-14.3c9.4,0.8,17.1,2.5,24.4,8
			C854.8,86,859.7,96.3,860.8,99z"/>
		<path fill="#28305A" d="M871.3,117.2c1.9,4.4,0.7,11.3-1.2,16.2c-1.7,4.3-4.8,12.2-8.9,14.6c-3.9,2.2-8.4,5.1-12.7,6.7
			c-6.2,2.2-13.6,3.7-20.1,4.1c-5.9,0.4-11.2-1.1-17.1-1.9c-6.3-0.8-9.5-4.9-13.8-9c-9.6-9.3-16.5-20-17.7-33.4
			c-1.1-12.1,2.9-23,9-33.2c4-6.7,6.6-11.2,14.1-13.9c6.8-2.4,12.7-3.9,20-2.9c6.8,0.9,15.7,3.3,21.5,7c11.3,7.3,19,20,21.3,24.7
			C868.9,103.1,871.8,117.4,871.3,117.2z M866.8,124.1c0.9-9.2-2.8-16.7-6-25c-1.1-2.7-6-13-17.2-21.4c-7.3-5.5-15.1-7.3-24.4-8
			c-9.7-0.8-21,7.8-26.2,14.3c-8.3,10.5-5.4,29.3-4.2,34.4c4.5,19.6,11.1,30.8,37.4,34.2c5.2,0.7,20.4-2.7,26.2-6.6
			C860.9,140,866,132,866.8,124.1z"/>
		<path fill="#28305A" d="M813.9,85.1c6.5-7.2,28,6.2,25.9,14.5c-2.6,10.5-22.7,12.4-23,28.1c-0.1,3.3,7.3,2.8,7.1-0.1
			c-0.4-9.4,4.4-8.8,8.2-12.1c8.9-7.8,18.8-13,9.3-29.4c-2.7-4.7-12.5-9.2-21.2-9.2c-5.5,0-10.5,2.3-13.1,5.6c-8.5,10.6-4,17.8,5,24
			c2.8,1.9,6.8-1.4,4-3.3C816.1,103.1,805.9,94,813.9,85.1z"/>
		<path fill="#28305A" d="M824.8,135.5c-1.2-0.4-3.9-1-5.6,0c-2.6,1.6-3.3,2.9-3.7,5.5c-0.4,2.8,2.3,5,5.5,5.3
			c3.5,0.3,6.7-1.4,7.1-4.4C828.5,138.2,826.4,136.2,824.8,135.5z M821.1,141.7C821.1,141.7,821.1,141.7,821.1,141.7
			C821.1,141.7,821.1,141.7,821.1,141.7C821.1,141.7,821.1,141.7,821.1,141.7z"/>
	</g>
	<g>
		<path fill="#658A92" d="M1698.3,128c-0.9-24.2,4.3-39.2,15.9-44.2c5.5-2.4,13.7-5.5,19.5-6.7c5.9-1.2,11.8-1.4,17.8-1.9
			c10.7-1,18.2,2,25.9,16.1c3.4,6.2,3.9,15.7,4,22.8c0.4,19.6-4.7,28.5-8.7,34c-2,2.7-5.1,5.3-7.9,7c-1.1,0.6-13.3,4.4-14.9,4.5
			c-4.7,0.6-15.2,5.1-30.4-1.8c-8-3.7-13.1-10.3-15.7-14.1C1699.7,137.7,1698.6,135.4,1698.3,128z"/>
		<path fill="#28305A" d="M1690.7,118.2c-2.9-13.8,6.3-28.2,14.9-37.6c3.8-4.2,12.3-7,17.4-8.1c6.1-1.3,12.3-2.7,18.5-2.1
			c0,0,0,0,0,0v0c0,0,0,0,0,0c5.6-2.6,11.5-0.7,17.3-0.6c6.2,0,12.1,0.8,16.8,5.7c3.9,4.1,6.7,7.2,8,12.9c1.4,6,6.7,22.6,5.1,38.2
			c-0.8,7.6-6,16.7-10.2,22.4c-3.8,5.2-7.2,8.5-12.8,11.2c-6.8,3.3-13.2,3.6-20.3,5.2c-14.8,3.4-31-2.2-42.6-11.9
			c-5-4.2-7.8-7.3-8.7-14.2c-0.4-3-1.2-5-2-7.9C1691,127.3,1691.6,122.5,1690.7,118.2z M1714.2,83.8c-11.6,5-16.8,20-15.9,44.2
			c0.3,7.4,1.4,9.7,5.4,15.6c2.6,3.8,7.7,10.5,15.7,14.1c15.3,6.9,25.7,2.4,30.4,1.8c1.6-0.2,13.9-4,14.9-4.5c2.9-1.7,5.9-4.2,7.9-7
			c4-5.5,9.1-14.5,8.7-34c-0.2-7.1-0.6-16.6-4-22.8c-7.7-14-15.2-17-25.9-16.1c-6,0.6-11.8,0.7-17.8,1.9
			C1727.9,78.2,1719.6,81.4,1714.2,83.8z"/>
		<path fill="#28305A" d="M1713.8,119.9c0.2,8.6-0.1,17.1,1.4,25.7c1.4,8.1,9,7.5,16.1,7.4c13.3-0.1,19.2,0.1,21.6-1.9
			c3.9-3.1,3.3-11.4,4.1-17.5c1-8.4-8.4-7.6-9.1-2c-0.3,2.2-0.4,4.4-0.4,6.7c0,0.5,0,6-1.1,6.2c-4.2,0.7-8.9,0.6-13.1,0.4
			c-4.4-0.2-10.1-0.4-10.7-5.5c-0.7-6.4-1.5-14.9-1.1-21.3c0.3-4.8,0.6-7.7,0.1-12.5c-0.1-1.4,0.3-4.7,0.3-6.1
			c-0.1-1.2-0.5-3.2,0.6-4c1-0.6,2.5-2,3.7-1.9c0.1,0,9.2-0.3,14.7-0.6c3-0.2,7.7,0.4,8,4c0.3,3.8-0.2,6.3-0.1,10.1
			c0.2,5.1,7.8,4,7.8-0.9c0.1-5.4,2.5-21.6-5.7-22.4c-3.4-0.3-6.4-0.5-9.8-0.1c-4.7,0.7-9.3,0.3-13.9,0.5
			c-6.2,0.3-10.6,2.6-11.9,6.8C1712.8,98.6,1713.6,112.3,1713.8,119.9z"/>
		<path fill="#28305A" d="M1736.3,124.2c2.6,0,5.3-0.5,7.8-0.5c5.5,0.1,11.6-1.1,17.1-1.1c-0.1,2.4-0.8,7.4-0.5,9.8
			c0.4,3.3,5.4,6.5,7.6,2.6c2.9-5.1,10.9-13.4,10.7-14.6c-0.2-1.4-7.5-9.9-9.9-14.8c-1.9-3.8-7.6-0.4-7.8,3.2
			c-0.1,2.1-0.1,3.9-0.3,5.9c-1.3,0-4.7,0.9-9.9,0.9c-6.9,0-7.7,0.4-14.6,0.4C1730.7,116,1730.4,124.1,1736.3,124.2z"/>
		<path fill="#436668" d="M1698.3,128c-0.9-24.2,4.3-39.2,15.9-44.2c5.5-2.4,13.7-5.5,19.5-6.7c5.9-1.2,11.8-1.4,17.8-1.9
			c10.7-1,18.2,2,25.9,16.1c3.4,6.2,3.9,15.7,4,22.8c0.4,19.6-4.7,28.5-8.7,34c-2,2.7-5.1,5.3-7.9,7c-1.1,0.6-13.3,4.4-14.9,4.5
			c-4.7,0.6-15.2,5.1-30.4-1.8c-8-3.7-13.1-10.3-15.7-14.1C1699.7,137.7,1698.6,135.4,1698.3,128z"/>
		<path fill="#28305A" d="M1690.7,118.2c-2.9-13.8,6.3-28.2,14.9-37.6c3.8-4.2,12.3-7,17.4-8.1c6.1-1.3,12.3-2.7,18.5-2.1
			c0,0,0,0,0,0v0c0,0,0,0,0,0c5.6-2.6,11.5-0.7,17.3-0.6c6.2,0,12.1,0.8,16.8,5.7c3.9,4.1,6.7,7.2,8,12.9c1.4,6,6.7,22.6,5.1,38.2
			c-0.8,7.6-6,16.7-10.2,22.4c-3.8,5.2-7.2,8.5-12.8,11.2c-6.8,3.3-13.2,3.6-20.3,5.2c-14.8,3.4-31-2.2-42.6-11.9
			c-5-4.2-7.8-7.3-8.7-14.2c-0.4-3-1.2-5-2-7.9C1691,127.3,1691.6,122.5,1690.7,118.2z M1714.2,83.8c-11.6,5-16.8,20-15.9,44.2
			c0.3,7.4,1.4,9.7,5.4,15.6c2.6,3.8,7.7,10.5,15.7,14.1c15.3,6.9,25.7,2.4,30.4,1.8c1.6-0.2,13.9-4,14.9-4.5c2.9-1.7,5.9-4.2,7.9-7
			c4-5.5,9.1-14.5,8.7-34c-0.2-7.1-0.6-16.6-4-22.8c-7.7-14-15.2-17-25.9-16.1c-6,0.6-11.8,0.7-17.8,1.9
			C1727.9,78.2,1719.6,81.4,1714.2,83.8z"/>
		<path fill="#28305A" d="M1713.8,119.9c0.2,8.6-0.1,17.1,1.4,25.7c1.4,8.1,9,7.5,16.1,7.4c13.3-0.1,19.2,0.1,21.6-1.9
			c3.9-3.1,3.3-11.4,4.1-17.5c1-8.4-8.4-7.6-9.1-2c-0.3,2.2-0.4,4.4-0.4,6.7c0,0.5,0,6-1.1,6.2c-4.2,0.7-8.9,0.6-13.1,0.4
			c-4.4-0.2-10.1-0.4-10.7-5.5c-0.7-6.4-1.5-14.9-1.1-21.3c0.3-4.8,0.6-7.7,0.1-12.5c-0.1-1.4,0.3-4.7,0.3-6.1
			c-0.1-1.2-0.5-3.2,0.6-4c1-0.6,2.5-2,3.7-1.9c0.1,0,9.2-0.3,14.7-0.6c3-0.2,7.7,0.4,8,4c0.3,3.8-0.2,6.3-0.1,10.1
			c0.2,5.1,7.8,4,7.8-0.9c0.1-5.4,2.5-21.6-5.7-22.4c-3.4-0.3-6.4-0.5-9.8-0.1c-4.7,0.7-9.3,0.3-13.9,0.5
			c-6.2,0.3-10.6,2.6-11.9,6.8C1712.8,98.6,1713.6,112.3,1713.8,119.9z"/>
		<path fill="#28305A" d="M1736.3,124.2c2.6,0,5.3-0.5,7.8-0.5c5.5,0.1,11.6-1.1,17.1-1.1c-0.1,2.4-0.8,7.4-0.5,9.8
			c0.4,3.3,5.4,6.5,7.6,2.6c2.9-5.1,10.9-13.4,10.7-14.6c-0.2-1.4-7.5-9.9-9.9-14.8c-1.9-3.8-7.6-0.4-7.8,3.2
			c-0.1,2.1-0.1,3.9-0.3,5.9c-1.3,0-4.7,0.9-9.9,0.9c-6.9,0-7.7,0.4-14.6,0.4C1730.7,116,1730.4,124.1,1736.3,124.2z"/>
	</g>
	<path fill="#28305A" d="M1973.4,103.8c-0.1-2.7-1.8-3.5-2.7-4.4c-2.2-2-4.8-0.7-10.1-0.5c-0.6,0-1.2,0-1.8,0.1
		c-0.2-0.9-0.5-1.7-0.7-2.6c-0.2-0.8-0.5-1.6-0.7-2.5c2.8-4.9,5.8-9.7,10-13.3c2-3.2-1.3-6.4-5.3-10.2c-6.9-6.7-10.2-8.9-13.1-8.6
		c-3.5,0.3-5.8,6.7-7.8,11.7c-4.3-2.7-9-4.8-13.8-5.8c-0.3-2.1-0.4-4.1-0.2-6.2c-0.8-3.4-5.1-3.3-10.2-3.2
		c-8.9,0.2-12.5,0.9-14.2,2.9c-1.6,1.9-0.4,5.6,1.1,9.4c-0.2,0.1-0.4,0.2-0.6,0.2c-2.6,1.1-4.2,2.1-6.9,2.7
		c-2.1,0.5-3.8,1.2-5.3,2.2c-1.8-1.4-3.6-2.9-5.1-4.6c-3-1.9-5.9,1.2-9.4,4.8c-6.1,6.3-8.1,9.4-7.8,12c0.3,3,5.4,5.2,10,7
		c-1.5,4.1-2.5,8.3-3,12.7c-2.6,0.5-5.3,0.8-7.9,0.6c-3.2,0.8-3.2,5.1-3.1,10.4c0.2,9,0.8,12.7,2.8,14.4c2.1,1.9,6.6,0,10.7-1.9
		c0.7,2.7,1.2,5.3,2,7.8c-3.3,4.4-6.4,8.5-8.6,11.7c-3.4,4.9,4.8,9.5,14,18.3c2,1.9,4.1,1.2,5.4,1.1c3.3-0.3,4.4-3.3,8.5-7.8
		c0.2-0.3,0.5-0.5,0.7-0.7c2.8,1.4,5.9,2.6,9,3.1c0.3,2.1,0.6,4,0.9,5.6c1,5.4,9.3,3.1,21.2,2.8c2.6-0.1,3.5-1.9,4.3-2.8
		c1.8-2.2,0.9-4.6,0.5-9.4c3.5-1,7.1-2.6,10.4-3.9c2,1.5,3.8,2.8,5.4,3.9c4.6,3.2,8.7-4.3,16.8-12.8c1.8-1.9,1.1-3.8,1-5
		c-0.3-2.8-2.7-3.9-6.3-7.1c0-1.3-0.1-2.7-0.1-4.1c-0.1-1.7-0.1-3.4-0.1-5.1c2.8-0.4,5.4-0.9,7.5-1.3
		C1975.9,124.3,1973.7,115.8,1973.4,103.8z"/>
</g>
</svg>
