<?xml version="1.0" encoding="utf-8"?>
<!-- Generator: Adobe Illustrator 18.0.0, SVG Export Plug-In . SVG Version: 6.00 Build 0)  -->
<!DOCTYPE svg PUBLIC "-//W3C//DTD SVG 1.1//EN" "http://www.w3.org/Graphics/SVG/1.1/DTD/svg11.dtd">
<svg version="1.1" xmlns="http://www.w3.org/2000/svg" xmlns:xlink="http://www.w3.org/1999/xlink" x="0px" y="0px"
	 viewBox="0 0 2048 1536" enable-background="new 0 0 2048 1536" xml:space="preserve">
<g id="Layer_2">
</g>
<g id="Layer_4">
</g>
<g id="Layer_3">
	<g>
		<path fill="#272449" d="M1140.7,658.5c0.8-7.4,1.6-14.8,2.4-22.2c0.4-3.2,0.6-4.6-3.6-2.6c-9.7,4.7-19.2,10.2-30.5,10.1
			c-7.3-0.1-14.6,2.4-21.9-1.6c-8.3-4.6-13.1-15.9-9.3-24.6c2.9-6.8,5-13,2.1-20.8c-1.6-4.2,0-10.2,1.5-14.9c1.1-3.4,1.1-5.5-1-8.4
			c-1.7-2.2-2.9-5.1-3.4-7.9c-3-16.2,14.2-21.6,24.6-18.7c9.2,2.6,18.2,6.2,27.3,9.2c0.9,0.3,2.1,0.1,3.1,0.1
			c-0.2-0.9-0.2-1.9-0.5-2.7c-3.5-10.9-7.3-21.7-10.6-32.7c-1-3.3-1.3-7-1.3-10.5c0-4.1,1.6-6.9,6.3-8.5c11.7-3.9,23.5-2.3,35.3-1.6
			c1.1,0.1,2.5,1,3.1,2c10.5,15,16.4,31.7,17.2,50.1c0.2,4.7-0.3,9.4,0.1,14c0.4,4.7,4.3,5.2,8,5.2c4.5,0,7.5-2.3,7.1-6.8
			c-0.5-5.7-1.7-11.5-3.3-17.1c-3.9-13-8.2-25.9-12.4-38.8c-0.7-2.2-1.2-4.5-2.5-6.3c-10.9-15.2-9.8-31.9-5.8-48.8
			c3.5-14.9,7.8-29.4,16.5-42.4c6.7-9.8,14.9-18,23.8-25.7c4.6-4,8.5-9.1,13.6-12.4c14-9.2,27.4-19.5,44-24c7.1-1.9,14-6.1,21.1-6.7
			c10.6-0.9,21.4,0.2,32,1.1c5.3,0.5,11.9,0.9,15.4,4.1c6.6,6,10.7,4.7,18.3,1.3c12.6-5.6,26.6-8.9,40.4-11.3
			c15.7-2.8,31.7-2.5,46.7,4.2c19.1,8.5,37.6,18.4,49.2,36.4c7.1,11,12.8,23,12.6,37.1c-0.1,9.7,2.2,19.5,2.7,29.3
			c0.4,7.6-0.1,15.2-0.3,22.8c0,2-0.2,4.1-0.1,6.1c0.6,13.9,1.5,27.9,1.9,41.8c0.2,7.7-0.8,15.5-0.3,23.1c0.3,4,2.6,7.9,4.6,11.6
			c0.6,1.1,3.2,1.2,4.9,1.8c0.2-1.3,0.6-2.6,0.4-3.8c-1.8-12.3-4.1-24.5-5.5-36.9c-0.9-8-0.6-16.2-0.8-24.3
			c-0.2-8.7,5.8-14.5,14.1-14.3c7.1,0.1,14.3-1.2,21.4-0.9c8.5,0.4,17.2,1,25.4,3.1c3.1,0.8,9.5,0.6,9.4,6.9c0,4.3,0.1,8.6-0.5,12.8
			c-2.3,15.1-7.1,29.4-14.3,43c-0.4,0.8-0.4,1.8-0.5,2.7c0.8-0.2,1.8-0.3,2.5-0.7c7.5-4.5,14.9-9.2,22.5-13.6
			c10.3-5.9,22-3.7,26.9,5.4c3.5,6.5,2.2,13.1-2,19.2c-0.4,0.5-0.3,2.1,0.1,2.4c7.1,4.3,9.3,12,4.7,19.3c-1.9,3-1.3,4,1.1,6.1
			c5.1,4.4,6,11.7,2,17.1c-6.5,8.8-14.6,14.4-26.4,12.3c-11.6-2.1-23.3-3.9-35-5.8c-3.6-0.6-6.3,0.5-5.3,4.5
			c1.3,5.6,3.4,10.9,5.3,16.4c3.4,10.1,9.7,19.5,8.1,30.8c-0.6,4-2.1,8.3-4.4,11.6c-1.4,2-5.1,3.2-7.8,3.1
			c-9.8-0.3-19.6-1.3-29.5-2.1c-6.7-0.6-13.4-1.2-20.1-2c-5.4-0.7-7.8-3.9-7.5-9.4c0.6-15,5.6-28.9,10.4-42.8
			c1.2-3.3,2.5-6.7,3.3-10.1c0.2-0.9-1.1-2.9-2.1-3.2c-6.2-1.7-12.5-2.9-18.6-4.4c-3.1-0.8-6.4-1.7-9.2-3.1c-4-2.1-5.5-0.4-6.4,3.2
			c-4.8,19.2-13.2,36.5-25.1,52.3c-13.8,18.4-30.5,33.5-49.7,46.1c-2.3,1.5-5.8,2.4-6.7,4.4c-1.6,3.6-1.5,8-2.5,11.9
			c-1.5,5.8,3,6.2,6.3,8.6c5.4,4,10.8,8.8,14.5,14.4c3.8,5.8,5.3,13,8,19.6c0.6,1.4,1.5,3,2.7,3.7c6.7,4.4,14.2,7.8,20.2,12.9
			c7.1,6,13.4,13,19.3,20.2c4.9,6,9.4,12.6,12.9,19.6c6.9,13.4,14.4,26.4,19.1,41c5.3,16.7,4.5,34.1,7.3,51
			c1.2,7.3-0.7,15.1-0.5,22.7c0.3,13.4,2.2,26.9,1.5,40.2c-0.7,13-3.5,26-6.3,38.8c-1.8,8.6-7.6,15.2-13.8,21.5
			c-2.2,2.3-4.3,6.2-4.2,9.2c1.4,22.1,2.6,44.2,5.3,66.1c2,16.2,6.1,32.2,9.5,48.3c2.7,13.1,5.4,26.2,8.7,39.2
			c2,7.8,5.1,15.3,7.8,22.9c0.1,0.2,0.2,0.3,0.2,0.5c0.4,3.3,0.7,6.6,1,9.8c-2.5-0.9-4.9-2.1-7.4-2.6c-14.8-3-29.6-7.2-44.9-3.7
			c-2.4,0.5-4.8,0.6-7.2,0.8c-5.4,0.4-7.8,2.8-7.3,8c0.8,7.8,2.1,15.6,3,23.4c0.6,4.8,0.6,9.6,1.2,14.3c0.2,1.6,1.2,3.3,2.2,4.6
			c3.2,3.7,7.3,6.8,10,10.9c4.8,7.5,8.1,15.7,6.2,24.9c-1.5,7.6-7,11.9-14.1,14c-8.8,2.6-8.4,2.5-8.5,11.4
			c-0.3,12.1-0.3,24.3-2.3,36.2c-1.3,7.7-5.1,15.3-9,22.3c-6.9,12.2-24.4,10.8-31.1-1.3c-3.6-6.4-6.5-12.4-5.9-20.3
			c0.6-7.1-1.6-14.4-2-21.7c-0.4-7.5-0.5-15-0.3-22.4c0.6-16.2,3.1-32.1,8.2-47.6c0.5-1.6,0.6-3.6,0.5-5.3c-1.3-13.5-3-27-4-40.6
			c-0.4-5.2-2.8-5.1-6.6-4.9c-9.2,0.7-18.4,1.4-27.6,1.5c-12.1,0.1-24.2-0.5-36.2-0.5c-3.8,0-7.8,0.6-11.4,1.9
			c-1.7,0.6-3.7,3.3-3.7,5.1c-0.1,5.6,1.2,11.3,1.1,17c-0.2,7.1-0.5,14.3-2.1,21.1c-1.9,8.4-2.2,15.9,5.5,21.5
			c4.6,3.4,5.6,8.2,5.7,13.3c0.2,14.1,0.5,28.2-0.1,42.3c-0.5,12.3-2,24.6-3.7,36.8c-0.9,6.4-2.9,12.7-10.5,14.9
			c-9,2.6-14.2-3-18.5-9.1c-10.1-14.3-14.4-30.5-14.1-47.9c0.1-5.4-0.5-9.6-7.7-9.6c-4.2,0-9.7-9.1-9.2-14.6
			c1.1-12.1,2.2-24.3,10.5-34.3c0.9-1.1,1.4-3,1.3-4.5c-0.4-16.2-1-32.3-1.7-48.5c0-0.9-1.8-2.6-2.8-2.5
			c-13.3,0.1-26.6,0.4-39.9,0.5c-3.2,0-6.4-0.6-9.6-0.9c-5.6-0.6-8-4.3-5.4-9.3c9-17,12.9-35.6,16.7-54.2
			c5.2-25.6,7.8-51.4,6.4-77.4c-0.8-16-3-32-3.5-48c-0.2-6.7-2.9-9.9-8-13.8c-9-6.9-13.6-17.2-16.2-28.1c-5.1-21.2-9.3-42.6-8-64.5
			c1-16,2.6-32.1,5.6-47.8c3.5-17.9,8-35.7,13.6-53c5.6-17.1,14.4-33,25.1-47.4c7.5-10.2,15.5-20.2,26.9-26.8
			c2.7-1.6,4.6-5.4,5.9-8.5c2.9-7.5,4.7-15.3,12-20.4c4.6-3.3,0.6-8.1,0.8-12.3c0.1-3-1.6-6.2-1.2-9.1c0.7-6.1-2.5-8.9-7.3-11.3
			c-18.2-8.9-31.5-23.2-41.6-40.3c-7.2-12.2-13.1-25.2-19.6-37.8c-2-3.9-3.9-7.8-6.2-11.4c-0.6-0.9-2.9-1.7-3.8-1.3
			c-3.1,1.3-5.9,3.3-8.9,5c-2.8,1.6-5.4,3.4-8.3,4.7c-5.3,2.4-7.1,10.5-4.1,16.9c3.1,6.5,6.2,13.1,8.1,20c2.8,9.7,5.3,19.6,2.8,30
			c-1,4.1-2.7,7.4-7.2,7.8c-13.1,1.2-26.1,2.9-39.2,3c-12.7,0.1-16.7-4.6-17.2-17.1c-0.2-4.1,0-8.1,0-12.2
			C1141.1,658.5,1140.9,658.5,1140.7,658.5z M1213.7,931.1c0.2,0,0.5,0,0.7,0c0,6.3-0.1,12.7,0,19c0.2,11.4,1,22.5,5.7,33.3
			c6.5,14.9,14.5,28.6,29.4,36.5c6.4,3.4,11.4,9.7,19.7,9.8c11.6,0.2,23.1,0.9,34.7,1.2c6.4,0.2,9.3-2.4,9.2-8.7
			c-0.1-10.4-0.3-20.8-0.8-31.2c-0.3-6.3-3.8-10.8-8.5-11.7c-3.3-0.6-6.8-0.6-10.1-1.2c-10.4-1.9-21.2-2.6-31-6.2
			c-19.3-7.1-30.4-21.9-34.4-42c-0.4-1.9,0-4.3,0.8-6.1c1.2-2.9,3.6-4.9,6.1-1.4c2.6,3.7,5.5,7.6,6.5,11.9
			c2.5,10.7,7.1,18.6,16.9,25.1c10.7,7,22.5,7.1,33.9,9.9c8.5,2.1,17,4.4,25.5,6.5c1,0.2,2.5,0,3.1-0.7c7.8-8.9,17.2-8.6,26.9-4.3
			c9.3,4.1,14.7,10.2,8.9,20.8c-1.6,3-3.4,6.1-1,9.9c0.7,1.1-0.3,3.4-0.8,5.1c-0.9,3.2-1.6,5.8,1.2,9.1c4.2,5,5,11.5,3,18
			c-1.6,5.2-14,11.7-21.2,10.8c-11-1.3-21.6-4.1-33.2-3.6c-16.3,0.7-33.2-0.5-49.2-6.2c-4.1-1.5-5.9,0.9-5.1,5.6
			c0.5,2.7,0.9,5.5,1,8.2c0.4,13.3,0.9,26.7,1.1,40c0.1,13.4,0.1,26.8-0.4,40.2c-0.2,5.8-2.3,11.5-2.7,17.2
			c-2.1,24.6-10.4,46.9-23.8,67.5c-0.8,1.2-0.5,3.1-0.5,4.6c0,0.2,1.3,0.7,2,0.6c8.8-0.8,17.5-1.7,26.3-2.5c10.3-1,20.7-2.5,31-2.8
			c17.6-0.5,35.1-0.4,52.7-0.3c12.1,0.1,24.3,1.4,36.4,0.7c14.9-0.9,29.8-3.2,44.7-4.9c2.6-0.3,5.1-0.8,7.6-1.5
			c12.7-3.5,25.5-4.6,38.6-3.9c10.5,0.5,21,0,31.5-0.3c0.6,0,1.8-1.8,1.7-2.6c-0.4-3.5-1.2-6.9-1.8-10.4c-1.1-6-2.1-12.1-3.4-18
			c-2.3-10.1-5.2-20-7.3-30.1c-1.6-7.4-2.6-15-3.5-22.6c-2.1-17-4.3-34.1-5.9-51.2c-1-10.2-0.9-20.4-1.6-30.7c-0.1-2,0.1-5-3.6-4.4
			c-8.5,1.3-17,2.8-25.6,3.9c-5.5,0.7-11.4,1.9-16.5,0.4c-5.4-1.5-7.8,0.9-11.3,3.5c-7.5,5.5-16.4,9.1-25.4,7.4
			c-11.2-2.1-19.6-10.5-16.7-24.2c0.7-3.2,0.3-5.3-2-7.8c-4-4.3-5.5-9.2-2.7-15.1c1.1-2.3,1.5-5.9,0.5-8.2
			c-5-11.7-0.8-20.2,11.8-22.6c0.8-0.1,1.6-0.4,2.4-0.5c8-1,15.7-2.2,23.7,1.7c3.4,1.6,7.5,5.2,12.5,2.8c5.9-2.8,12.3-4.6,17.8-8
			c13-8.2,23.9-18.2,23.9-35.3c0-2.2,0.3-4.6,1-6.7c1.3-3.8,3.9-6.5,8.2-6.1c4.4,0.4,5.1,3.6,4.1,7.1c-1.4,5.3-2.9,10.5-4.7,15.6
			c-6.3,18-21,27.7-36.7,36.1c-6.2,3.3-8.4,5.6-8.4,12.5c0,4.8-0.5,9.7,0,14.5c0.7,7.1,1.9,14.2,3.3,21.2c0.3,1.3,2.9,3.2,4.4,3.1
			c5.6-0.3,11.2-1.3,16.8-2c3.6-0.5,7.3-0.6,10.8-1.7c9.6-2.9,18.7-7.1,22.2-17.5c5.3-15.7,9.4-31.7,9.8-48.4
			c0.3-12.6,0.8-25.2,1.3-37.8c0.2-5.2,1.2-10.5,0.4-15.5c-2.5-15.7-5.6-31.4-8.6-47c-1-5.1-2.2-10.1-3.8-15
			c-6.4-19.7-17.7-36.7-30.8-52.5c-5.1-6.1-11.8-10.9-17.8-16.2c-0.8-0.7-2-0.9-3.1-1.1c-0.2,0-0.8,1.2-0.9,1.9
			c-0.8,4.8-0.8,10-2.4,14.5c-2,5.3-3.1,11.4-9.1,14.4c-8.2,4.1-16,4.4-23.4-1.8c-0.9-0.7-4-0.7-4.2-0.2c-2.6,5.8-8.1,7.8-13.1,10.4
			c-4.8,2.4-9.3,1.6-13.6-1.8c-1.3-1.1-4.1-1.8-5.4-1.2c-11.6,5.9-13.6,5.8-22.7-3c-1.4-1.3-2.3-2.9-4.4,0
			c-4.3,6.2-10.2,10.5-18.1,9.3c-5.6-0.9-11-3.1-16.4-5c-5.2-1.8-10.2-3.6-13-9.3c-4.8-10-9.3-19.9-7.1-31.4
			c0.1-0.7-0.3-1.5-0.5-2.2c-0.6,0.4-1.3,0.8-1.8,1.3c-3.9,4.1-7.5,8.4-11.5,12.3c-12.9,12.6-20.5,28.6-28.6,44.3
			c-2.8,5.4-5.5,11-7.5,16.8c-4,11.6-9.2,23.1-10.9,35.1C1214.6,895.4,1214.7,913.3,1213.7,931.1z M1461.9,486.8
			c0-1.1,0.2-2.3,0-3.4c-3.2-13.4-5.9-27-9.9-40.2c-2.4-7.8-9.5-13.4-17.1-14.5c-11.9-1.8-24.3-1.6-36.4-1.2
			c-16.1,0.6-31.5-1.3-46-8.8c-0.9-0.5-3.3,0-3.8,0.8c-4.3,6.7-11.3,9.6-18.2,10.8c-23.2,4.1-46.6,6.9-69.6,12.7
			c-10.9,2.8-20.7,6.2-29.1,13.9c-9.1,8.3-15.2,17.9-13.6,30.5c1.8,14.5,4.8,28.9,6.8,43.4c1.5,10.5,2.6,21.1,3.1,31.7
			c0.4,8.3-1.3,16.8-0.4,25c1.3,11.9,4.6,23.4,11.7,33.5c3.8,5.5,7.3,11.3,10.8,17c9.5,15.4,19,30.9,35.7,39.7
			c7.4,3.9,15.4,6.7,23.3,9.5c4.1,1.4,8.9,0.8,12.8,2.6c12.1,5.4,25,4.9,37.4,4.1c14.8-0.9,28.7-7.1,41.6-14.6
			c9.6-5.6,18.3-12.5,25.5-21.3c8-9.7,17.5-18.4,24.4-28.8c12.8-19.3,20.2-40.6,16.9-64.4c-0.7-4.8-1.7-9.5-2.2-14.4
			c-0.8-7.4-0.6-14.9-1.9-22.2C1461.2,514.6,1459.8,500.8,1461.9,486.8z M1303.9,358.3c-0.1-0.6-0.2-1.1-0.4-1.7
			c-12,3-24.7,4.5-35.9,9.3c-21.3,9.2-41,21.4-57,38.7c-3.7,4-8.4,7.5-10.9,12.2c-5.2,9.6-10.2,19.6-13.5,29.9
			c-2.8,8.9-3.9,18.5-4.5,27.9c-0.3,4.7,2.1,9.6,3.3,14.5c1.3,5.4,2,11,3.9,16.1c4.3,11.6,9.1,22.9,13.7,34.4
			c1.1,2.8,1.9,5.8,3.2,8.6c5.2,11.6,1,27.5-9.3,34.3c-2.9,1.9-4.4,4.1-2.8,7.7c0.8,1.7,1,3.7,1.5,5.6c1,4,3,4.1,5.9,1.7
			c3-2.5,5.9-5,9.1-7.3c7.6-5.3,9.3-13.5,9.9-21.7c1.5-19.2-4.4-37.3-8.4-55.8c-2.5-11.6-5.7-23.2-3-35.5
			c2.7-12.1,8.2-22.6,17.3-30.3c6.7-5.6,15.4-9.7,23.8-12.4c17-5.3,34.5-9.2,51.9-13.6c9.6-2.4,19.5-3.8,28.7-7.3
			c8.8-3.4,12.9-10.4,9.2-20.2c-1.3-3.4-1.9-7.2-2-10.8c-0.3-14.1-5.9-21.6-19.7-24.2C1313.4,357.6,1308.6,358.3,1303.9,358.3z
			 M1403,352.1c0-0.1,0-0.2,0-0.2c-3.1,0-6.1-0.1-9.2,0c-12.8,0.3-22.1,7.8-31.7,15c-9.4,7-9.8,16.8-4.7,26.2
			c6.6,12.1,18.5,14.7,30.6,16.3c6.8,0.9,13.9-0.1,20.9,0.3c10.5,0.6,21.1,1.3,31.6,2.9c4.9,0.7,9.7,3.3,14,5.8
			c2.1,1.2,2.8,4.7,4.8,6.5c5,4.3,8,9.8,9.7,15.9c3.7,13.3,5.1,27,5.4,40.8c0.3,11.7,1.1,23.3,1.9,35c0.3,4.1,1.9,8.2,1.8,12.3
			c-0.3,12.2,2.2,23.9,6.1,35.3c1.1,3.2,3.9,6.5,6.8,8.2c5.4,3.1,11.5,5.2,17.5,7.4c1.5,0.5,3.6-0.4,5.4-0.6
			c-0.7-1.9-0.8-4.4-2.1-5.5c-12-10.3-18.5-23.2-17.6-39.1c0.8-15.3,3.2-30.5,1-46c-1-6.7-0.1-13.7-0.7-20.6
			c-1.5-17.1-3.7-34.1-5-51.2c-0.7-9-2.6-17.9-8.2-24.4c-8.5-9.9-18.3-18.7-28.2-27.3c-7.4-6.4-16.7-9.7-26.4-11.1
			C1418.9,352.5,1410.9,352.6,1403,352.1z M1351.3,791.8c0-1.8,0-2.6,0-3.4c0.3-6.1,3.5-10.3,7.9-10.6c6.6-0.4,8.8,1.9,9.9,9.5
			c0.4,2.8,1.6,5.6,1.8,8.4c0.2,3,1.7,5.4,4.2,4.2c2-0.9,3.4-4.1,4-6.6c1.1-4.8,0.8-10,2.4-14.6c1.8-5.1,8.7-6.6,12.2-2.7
			c3.5,4,6.1,8.9,8.3,13.8c2,4.4,5.9,3.4,9,4c1,0.2,3.2-2.6,3.9-4.5c3.4-9.8,4.1-19.6,0.1-29.5c-1.2-2.8-1.7-6-3-8.7
			c-3-6.4-6.3-12.8-9.7-19c-0.7-1.3-2.7-2-4.1-2.9c-0.6,1.4-1.4,2.7-1.7,4.1c-0.4,2-0.3,4.2-0.7,6.2c-2,9.8-3,13.5-11,13.9
			c-3.4,0.1-6.8,0.1-10.1,0.4c-10,0.7-19.9,1.8-29.9,2.1c-9.1,0.3-18.3-0.1-27.5-0.7c-7.3-0.5-13.8-3.4-18.3-9.6
			c-0.6-0.8-0.7-1.9-1-2.9c-0.8,1-2,1.9-2.3,3c-2.1,9-4.1,18-5.9,27.1c-3.5,18.2,6.7,27.9,22.8,31.7c4.6,1.1,9.6-3.3,10-7.2
			c0.5-4.9,1.6-9.7,3-14.4c1.4-4.7,4.6-7.4,9.8-6c4.7,1.3,6.7,5.4,6.2,11.2c-0.2,2.3-0.3,5.3,0.9,6.9c1.8,2.5,4.9,4.1,7.4,6
			c0.5-2.3,1.1-4.5,1.4-6.8C1351.6,793.1,1351.3,791.9,1351.3,791.8z M1325,1307.9c-1.1-5.9-1.2-10.5-2.9-14.3
			c-1.5-3.4-4.6-6.3-7.5-8.9c-0.4-0.4-3.6,2.3-5.5,3.5c-0.7,0.4-1.4,0.8-2.2,1c-9.1,2.2-17.9,2.8-25.3-4.5c-2.2-2.1-3.5-2.7-5.2,0.7
			c-4.5,8.9-6.5,18.3-6.4,28.2c0.1,6.9,3.9,11.7,10.4,11.1c6.7-0.6,6.7,2.8,6.7,7.5c0,6.1-0.7,12.5,0.7,18.3
			c2.9,12.1,5.3,24.7,14.8,33.9c2.5,2.4,6.4,5.4,9.1,4.8c2.8-0.6,6-4.6,7.1-7.8c1.9-5.6,3-11.7,3.4-17.6
			C1323.4,1344.8,1324.1,1325.6,1325,1307.9z M1463.8,1294.6c0.5-0.2,1-0.4,1.5-0.6c-2.5-5.8-4.9-11.7-7.7-17.4
			c-0.5-0.9-4-1.4-4.1-1.3c-3.3,8-11.2,8.9-17.8,11.3c-6.7,2.5-16.5,1.3-19.8-6.8c-0.5-1.2-2.4-1.8-3.6-2.6c-0.7,1.3-1.9,2.6-2,3.9
			c-0.9,10.6-2.3,21.2-2,31.8c0.4,12.9,1.6,25.9,3.8,38.6c1.5,8.6,5,16.8,8,25.1c0.4,1.1,4,2.3,4.6,1.8c4-3.6,9.1-7,11.1-11.7
			c3.1-7.2,4.4-15.3,5.6-23.1c1.3-8.1,1.3-16.4,2.2-24.5c0.6-5.6,2.3-11.9,7.4-11.5C1461.2,1308.5,1463.6,1301.8,1463.8,1294.6z
			 M1307.1,720c0.1,0,0.1,0,0.2,0c0.2,4.3,0.2,8.7,0.8,13c0.4,2.4,1.4,5.3,3.1,6.8c10.8,9,24,7,36.6,6.9c5.8,0,11.6-1.6,17.4-2.3
			c5.7-0.7,11.4-1.1,17-2.1c1.6-0.3,3.8-2.6,3.9-4.1c0.4-10.8,0.3-21.6,0.5-32.5c0.1-3.6-0.9-4.6-4.4-3.4c-21.9,7.3-43.7,5-65.5-0.7
			c-2.2-0.6-4.5-1-6.7-0.8c-1.1,0.1-2.8,2-2.9,3.2C1306.9,709.4,1307.1,714.7,1307.1,720z M1531.1,485.1c-0.4-0.6-0.7-1.1-1.1-1.7
			c-1.3,1.8-3.8,3.7-3.8,5.5c0,6.5,0.1,13.2,1.4,19.6c2.3,11.6,5.3,23,8.5,34.4c0.4,1.5,3.3,3,5.3,3.3c3.2,0.5,6.9-0.9,9.6,0.2
			c4.4,1.9,6.6,0.3,8-3.2c5.3-13.9,10.4-27.9,15.3-41.9c0.4-1.3-0.7-4.2-1.9-4.8C1559.3,490.3,1546.7,482.8,1531.1,485.1z
			 M1099.4,588c-1.1-0.1-2.5-0.7-3.3-0.2c-2,1.3-3.7,3-5.5,4.5c1.3,0.8,2.5,1.9,4,2.5c2.6,1.1,5.8,1.4,7.9,3.1
			c2.3,1.8,4.6,4.6,5.1,7.3c1,5.7-1.3,7.9-10.1,9.2c-5.6,0.8-5.2,4.7-5,8.1c0.2,3.9,2.5,5.8,7.1,5.3c11.7-1.2,22.9-3.9,33.6-8.9
			c11-5.2,12.5-7.6,11.4-19.6c-0.1-1.6,0.5-3.4,0-4.8c-1.4-3.7,2.7-8.5-2.2-11.4c-6.6-3.9-12.8-8.7-19.8-11.2
			c-9.4-3.4-19.5-5.2-29.3-7.5c-1.3-0.3-2.8,0.7-4.3,1.1c1.3,1.4,2.3,3.7,3.8,4.1c3.8,1.1,8,1,11.8,2.1c1.8,0.5,4,2.5,4.4,4.2
			C1111.1,584.8,1108.5,587.8,1099.4,588z M1600.6,595.8c2,0,3.9,0.1,5.9,0c3.9-0.2,9.2-6.1,8.7-10.2c-0.1-0.9-3.7-1.3-5.8-1.8
			c-1.2-0.4-2.6-0.5-3.7-1.1c-2-1.2-3.8-2.7-5.7-4.1c1.8-1.8,3.5-3.7,5.4-5.4c0.6-0.6,2.1-0.2,2.7-0.8c1.5-1.3,4.1-3.1,3.9-4.4
			c-0.2-1.9-2.2-4.3-4-5.1c-2.6-1.1-5.8-0.5-8.5-1.4c-2.6-0.9-6.2-2.2-7-4.3c-1.5-3.7,2-5.5,5.1-7c2.9-1.4,5.9-2.8,8-5.1
			c1.1-1.2,1.3-4.9,0.3-6.2c-1.1-1.3-4.7-2.3-6.1-1.5c-11,6.3-21.9,13-32.5,19.9c-1.8,1.1-3.2,3.9-3.4,6c-0.8,6.8-0.5,13.7-1.6,20.4
			c-1.2,7.4-0.5,9.4,6.8,10C1579.6,594.7,1590.1,595.1,1600.6,595.8z M1148.1,665.6c0.3,0,0.7,0.1,1,0.1c-0.1,1.1-0.1,2.3-0.2,3.4
			c-0.4,6.3,2.9,9.5,9,8.4c9.8-1.8,19.6-3.5,29.3-5.6c8.3-1.8,8.5-4.8,6.9-10.6c-0.5-2-1.4-4-2.1-6c-3.4-9.6-6.9-19.2-10.1-28.9
			c-0.8-2.5-1.3-4-4.5-3.3c-6.2,1.4-12.5,2.2-18.5-1c-2.9-1.5-4.5-0.3-4.9,2.9C1152.2,638.6,1150.1,652.1,1148.1,665.6z
			 M1544.1,654.9c4.3-0.5,8.8-1.1,13.3-1.6c4.3-0.4,5.2-2.8,4-6.6c-3-9.5-6.2-19-9-28.5c-3.9-14-3.8-14-18.4-15.7
			c-0.2,0-0.3,0-0.5,0c-5.4-1.7-7.6,1-8.9,5.9c-2.2,8.1-5,16-7.1,24c-1.5,5.8-2.7,11.8-3.4,17.8c-0.2,1.4,2.3,4.5,3.7,4.6
			C1526.5,655.1,1535.2,654.9,1544.1,654.9z M1148.8,510.7c-5.3,2-10.7,3.9-15.9,6.2c-0.9,0.4-1.4,3.1-1.1,4.6
			c2,13.8,7.9,26.3,13.8,38.8c3.3,7,7.7,11.6,16.4,10.1c5.3-1,11.5-4.2,11.2-7.6c-1-11.4-0.8-23.2-4.2-33.9
			C1165.2,516.8,1159.6,510.9,1148.8,510.7z M1284.7,1259.5c-0.1,0-0.2,0-0.3,0c0.1,0.8,0.2,1.6,0.2,2.4
			c-1.1,12.5,4.6,18.8,14.9,21.3c2.1,0.5,5.9-0.2,6.7-1.7c2.6-4.4,5.5-9.3,5.8-14.2c1-13.5,1-27,1-40.5c0-1.4-2.8-4-4.3-4
			c-7.4-0.1-14.8,0.5-22.2,1c-2.8,0.2-3.7,1.8-3.5,4.7C1283.7,1238.8,1284.1,1249.1,1284.7,1259.5z M1411.8,1001.4
			c0.5-0.1,0.9-0.1,1.4-0.2c0-3.9,0.5-7.9-0.1-11.7c-1.6-11.2-1.7-12.9-11-15.1c-6.2-1.5-11.9,0.4-17.5,2.2
			c-5.2,1.7-8.3,9.6-5.2,11.9c2.6,1.9,5.9,3,9,4.3c1.9,0.8,4,1.1,5.8,2c1.2,0.6,1.9,2.1,2.8,3.2c-1.2,0.6-2.3,1.4-3.6,1.7
			c-1.8,0.5-3.7,0.9-5.6,1c-5,0.3-5.5,4.4-5.4,7.7c0,1.1,4.2,2.1,6.5,2.9c0.8,0.3,2,0,2.9-0.3c2.7-1.3,5.4-0.8,5.7,2.1
			c0.2,2.2-1.2,4.9-2.6,6.9c-0.7,1-3,0.9-4.5,1.4c-4.2,1.4-5.5,4.9-5.4,8.7c0,1.6,1.6,3.8,3.1,4.6c3.3,1.6,6.9,2.5,10.4,3.7
			c7.9,2.6,18.5-4.7,17.2-11.8C1414.3,1018.3,1413.1,1009.9,1411.8,1001.4z M1442.1,1225.7c0.1,0,0.3,0,0.4-0.1
			c0-2.7,0.5-5.6-0.2-8.2c-0.4-1.5-2.7-3.6-3.9-3.5c-6.7,0.7-13.4,1.9-20,3.3c-2.9,0.6-4.7,2.5-3.7,6.1c0.8,2.9,0.7,6.1,1,9.1
			c1.4,11.2,2.5,22.5,4.5,33.7c0.7,3.8,3.2,7.8,6,10.5c4.3,4.1,13.8,1.7,14.8-4c1.8-10.7,2.2-21.7,2.6-32.6
			C1443.8,1235.3,1442.7,1230.5,1442.1,1225.7z M1337.7,1035.4c2.9-0.4,5.8-0.6,8.7-1.2c4.2-0.9,5.3-4.2,4.9-7.8
			c-0.4-3.8-2-6.9-6.9-6.3c-2.4,0.3-5,0.5-7.2-0.2c-2.1-0.7-6.3-1.2-4.3-5.2c2.3-4.6,5.3-8.8,11.2-9.4c1.1-0.1,2.1-1.4,3.1-2.2
			c-1.2-1.1-2.4-2.9-3.7-3.1c-2-0.3-4.2,1.1-6.1,0.6c-1.9-0.4-4.6-1.9-5.1-3.4c-0.4-1.4,1.3-4.5,2.8-5.2c3.9-1.8,8.1-3.2,12.4-3.9
			c4.7-0.7,4.6-3.7,3.7-6.7c-1.6-5.3-15.9-8.8-19.1-4.4c-5.1,7-10.4,14.1-9.2,23.9c1.1,9,1.3,18.1,2.5,27c0.3,2.3,2.7,4.8,4.8,6.1
			C1332.2,1035.2,1335.1,1035,1337.7,1035.4z M1526.7,576.3c-1.5,4.9,1.4,8.1,6.2,9.6c4.2,1.3,8.6,2,13,2.5
			c3.9,0.5,7.5-5.4,7.9-12.4c0.7-11.7-1-13.8-14.9-14.3C1531.1,561.5,1527.1,562.7,1526.7,576.3z M1174.3,581
			c-2.7,0.2-4,0.4-5.3,0.5c-7.7,0.6-10.2,3-11,10.7c-0.3,2.7,0.4,5.6-0.3,8.2c-1.2,5,2.7,7.1,5.5,9c3,2,6.8,3.5,10.8,0.6
			c4.8-3.6,10.1-16.3,7.8-21.7C1180.4,584.6,1178.5,580.2,1174.3,581z"/>
		<path fill="#3AAA35" d="M1213.7,931.1c1-17.8,0.9-35.7,3.4-53.3c1.7-12,6.9-23.5,10.9-35.1c2-5.8,4.7-11.3,7.5-16.8
			c8-15.7,15.6-31.7,28.6-44.3c4-3.9,7.7-8.2,11.5-12.3c0.5-0.5,1.2-0.9,1.8-1.3c0.2,0.7,0.6,1.5,0.5,2.2
			c-2.2,11.5,2.3,21.4,7.1,31.4c2.8,5.7,7.8,7.5,13,9.3c5.4,1.8,10.8,4.1,16.4,5c7.9,1.2,13.8-3.1,18.1-9.3c2-2.9,3-1.4,4.4,0
			c9.1,8.8,11.2,8.9,22.7,3c1.3-0.7,4.1,0.1,5.4,1.2c4.3,3.4,8.7,4.2,13.6,1.8c5-2.5,10.5-4.6,13.1-10.4c0.2-0.5,3.3-0.6,4.2,0.2
			c7.4,6.3,15.2,5.9,23.4,1.8c6-3,7.1-9.1,9.1-14.4c1.7-4.5,1.6-9.6,2.4-14.5c0.1-0.7,0.7-1.9,0.9-1.9c1.1,0.2,2.3,0.4,3.1,1.1
			c6,5.3,12.7,10.1,17.8,16.2c13.1,15.8,24.4,32.8,30.8,52.5c1.6,4.9,2.9,10,3.8,15c3,15.7,6.1,31.3,8.6,47c0.8,5-0.2,10.3-0.4,15.5
			c-0.4,12.6-1,25.2-1.3,37.8c-0.4,16.7-4.5,32.7-9.8,48.4c-3.5,10.5-12.6,14.6-22.2,17.5c-3.4,1.1-7.2,1.2-10.8,1.7
			c-5.6,0.8-11.2,1.7-16.8,2c-1.5,0.1-4.1-1.8-4.4-3.1c-1.5-7-2.6-14.1-3.3-21.2c-0.5-4.8,0-9.6,0-14.5c0-7,2.2-9.2,8.4-12.5
			c15.7-8.4,30.3-18.1,36.7-36.1c1.8-5.1,3.4-10.3,4.7-15.6c0.9-3.5,0.3-6.7-4.1-7.1c-4.3-0.4-7,2.3-8.2,6.1c-0.7,2.1-1,4.5-1,6.7
			c-0.1,17.2-10.9,27.2-23.9,35.3c-5.4,3.4-11.9,5.2-17.8,8c-4.9,2.3-9.1-1.2-12.5-2.8c-8-3.8-15.7-2.6-23.7-1.7
			c-0.8,0.1-1.6,0.4-2.4,0.5c-12.6,2.4-16.8,10.9-11.8,22.6c1,2.3,0.6,5.8-0.5,8.2c-2.8,5.9-1.3,10.9,2.7,15.1
			c2.3,2.5,2.7,4.7,2,7.8c-2.9,13.7,5.5,22.1,16.7,24.2c8.9,1.7,17.9-1.9,25.4-7.4c3.5-2.6,5.9-5,11.3-3.5c5.1,1.4,11,0.2,16.5-0.4
			c8.6-1,17.1-2.5,25.6-3.9c3.7-0.6,3.5,2.4,3.6,4.4c0.6,10.2,0.6,20.5,1.6,30.7c1.6,17.1,3.8,34.1,5.9,51.2
			c0.9,7.6,1.9,15.1,3.5,22.6c2.1,10.1,5,20,7.3,30.1c1.4,6,2.3,12,3.4,18c0.6,3.4,1.4,6.9,1.8,10.4c0.1,0.8-1.1,2.6-1.7,2.6
			c-10.5,0.3-21,0.8-31.5,0.3c-13.1-0.7-25.9,0.4-38.6,3.9c-2.5,0.7-5,1.2-7.6,1.5c-14.9,1.8-29.7,4.1-44.7,4.9
			c-12.1,0.7-24.2-0.6-36.4-0.7c-17.6-0.1-35.1-0.2-52.7,0.3c-10.4,0.3-20.7,1.8-31,2.8c-8.8,0.8-17.5,1.7-26.3,2.5
			c-0.7,0.1-2-0.4-2-0.6c0-1.6-0.3-3.4,0.5-4.6c13.3-20.6,21.7-42.9,23.8-67.5c0.5-5.8,2.5-11.5,2.7-17.2
			c0.5-13.4,0.5-26.8,0.4-40.2c-0.1-13.3-0.6-26.7-1.1-40c-0.1-2.7-0.5-5.5-1-8.2c-0.8-4.6,1-7.1,5.1-5.6c16,5.8,32.9,6.9,49.2,6.2
			c11.6-0.5,22.2,2.3,33.2,3.6c7.2,0.9,19.5-5.6,21.2-10.8c2-6.5,1.2-12.9-3-18c-2.8-3.3-2.2-5.9-1.2-9.1c0.5-1.7,1.5-4,0.8-5.1
			c-2.4-3.8-0.7-6.9,1-9.9c5.8-10.6,0.4-16.7-8.9-20.8c-9.7-4.3-19.1-4.6-26.9,4.3c-0.6,0.7-2.2,0.9-3.1,0.7
			c-8.5-2.1-17-4.4-25.5-6.5c-11.4-2.8-23.1-2.9-33.9-9.9c-9.9-6.4-14.5-14.3-16.9-25.1c-1-4.2-3.9-8.2-6.5-11.9
			c-2.5-3.5-4.9-1.5-6.1,1.4c-0.8,1.9-1.2,4.2-0.8,6.1c3.9,20.1,15.1,34.9,34.4,42c9.8,3.6,20.6,4.3,31,6.2
			c3.3,0.6,6.8,0.6,10.1,1.2c4.7,0.9,8.2,5.5,8.5,11.7c0.5,10.4,0.7,20.8,0.8,31.2c0,6.3-2.8,8.9-9.2,8.7
			c-11.6-0.3-23.1-1.1-34.7-1.2c-8.3-0.1-13.3-6.3-19.7-9.8c-14.9-8-22.9-21.6-29.4-36.5c-4.7-10.7-5.4-21.9-5.7-33.3
			c-0.1-6.3,0-12.7,0-19C1214.2,931.1,1213.9,931.1,1213.7,931.1z"/>
		<path fill="#FCCB8D" d="M1461.9,486.8c-2.1,14-0.7,27.8,1.7,41.6c1.3,7.3,1.1,14.8,1.9,22.2c0.5,4.8,1.5,9.6,2.2,14.4
			c3.4,23.8-4,45.1-16.9,64.4c-6.9,10.4-16.4,19.1-24.4,28.8c-7.2,8.8-15.9,15.7-25.5,21.3c-12.9,7.4-26.8,13.6-41.6,14.6
			c-12.4,0.8-25.3,1.3-37.4-4.1c-3.9-1.7-8.7-1.1-12.8-2.6c-7.9-2.8-15.9-5.6-23.3-9.5c-16.7-8.7-26.3-24.2-35.7-39.7
			c-3.5-5.7-6.9-11.5-10.8-17c-7.1-10.1-10.4-21.6-11.7-33.5c-0.9-8.2,0.8-16.7,0.4-25c-0.5-10.6-1.6-21.2-3.1-31.7
			c-2-14.5-5-28.9-6.8-43.4c-1.6-12.6,4.6-22.2,13.6-30.5c8.4-7.7,18.3-11.1,29.1-13.9c22.9-5.8,46.4-8.6,69.6-12.7
			c6.9-1.2,13.9-4.1,18.2-10.8c0.5-0.8,2.9-1.3,3.8-0.8c14.5,7.5,29.9,9.4,46,8.8c12.1-0.4,24.4-0.5,36.4,1.2
			c7.6,1.1,14.7,6.7,17.1,14.5c4,13.2,6.7,26.8,9.9,40.2C1462.1,484.5,1461.9,485.7,1461.9,486.8z M1408.5,521.7
			c18.2-0.6,38.7-12.9,43.1-33c1.2-5.3-2.3-12.6-7.2-14.6c-5.1-2.1-9.9-5.2-15.1-6.9c-6.5-2.2-13.4-5.2-19.8-4.7
			c-12.3,0.9-24,5.4-33.6,13.8c-5.5,4.8-11.1,9.8-11.9,17.7c-0.1,1.3,0.4,3.2,1.3,3.9c7.7,5.7,15.2,11.9,23.6,16.5
			C1395.8,518.2,1403.8,520,1408.5,521.7z M1280.4,523.3c0.1,0.5,0.2,1.1,0.3,1.6c6.4-1.9,13.3-2.9,19.1-6
			c10.7-5.8,17-16.4,23.8-26.1c2.8-3.9,1.8-10.9-2.2-13.8c-5.4-4-11.4-7.4-17.5-10.2c-3.5-1.6-7.9-2.4-11.7-2
			c-8.5,0.8-16.8,3-25.3,3.7c-14.2,1.3-24.6,9.1-33.9,18.8c-4.9,5.2-4.7,9.7,0.4,14.9C1246.3,517.3,1261.4,525,1280.4,523.3z
			 M1341.9,674c1.5,0,3,0.2,4.4,0c9.3-1.7,19.4-1.8,27.7-5.7c16.7-7.8,22.8-23.4,24.2-41c0.2-2.9-0.6-5.5-4.6-5.9
			c-6.7-0.8-12.9-0.3-18.6,3.9c-16.2,12-33.3,6.7-50.2,2.1c-6-1.6-11.7-4.4-17.8-5.6c-3.4-0.7-7.6-2-10.8,2
			c-6.2,7.9-5.4,18.1,2.2,25.3c6.3,6,13.4,11.3,19.8,17.3C1325,672.7,1333.1,674.4,1341.9,674z M1328.7,520.8
			c-0.6-0.1-1.2-0.2-1.7-0.3c0-1.9,0.3-3.9-0.1-5.8c-0.4-2.1-1.4-4.2-2.1-6.3c-1.6,1.8-3.4,3.5-4.7,5.6c-0.8,1.3-1,3.2-0.7,4.7
			c2.3,14.7-1.6,28.2-6.9,41.7c-2.2,5.5-3.4,11.6-3.8,17.5c-0.5,9.2,4.8,14.8,12.5,19.6c8.6,5.4,23.6,6.3,30.2-2.1
			c2.3-3,5.1-4.9,9.1-1.8c1.1,0.9,3.6,0.7,5.1,0.1c9-3.1,15.5-18.3,11-26.8c-1.8-3.4-6-5.5-9.2-8.2c-1.7,2-3.7,3.9-4.9,6.2
			c-1.1,2.2-0.5,3.8,2.4,5.1c2.3,1.1,5.5,5.1,5,6.6c-1.1,2.9-4.5,4.9-7,7.2c-0.9-2-1.6-4.1-2.7-6c-1-1.9-2.2-3.6-3.3-5.4
			c-1.4,1.6-2.9,3.1-4.3,4.7c-0.3,0.4-0.4,0.9-0.6,1.3c-2.5,5.2-5.7,10.3-11.5,11.4c-5,0.9-10.4,1.2-15.1-2.6
			c-4.1-3.3-8.2-6.8-8.1-12.3c0-4,2.1-8,3-12.1C1323.2,548.9,1326,534.9,1328.7,520.8z M1421.7,626.6c-0.5-0.2-0.9-0.3-1.4-0.5
			c-0.2-3.2-0.3-6.5-0.7-9.7c-0.9-6.9-6.5-10.8-12.4-8.7c-0.6,0.2-1.1,2.1-0.8,2.9c1.1,2.9,3.1,5.6,3.9,8.6c2.5,9-0.4,17.5-3.2,26
			c-0.6,1.7,1.1,4.2,1.7,6.4c1.9-1.1,5-1.7,5.6-3.3C1417.1,641.2,1419.3,633.9,1421.7,626.6z M1275.9,622.1c1,4.3,1.3,7.6,2.5,10.6
			c0.6,1.7,3.1,4.3,3.8,4c2.3-1,4.5-2.5,3.8-6.1c-1.3-6.9-1.9-13.7,3.9-19.4c2.6-2.5,1.2-5.3-2-6c-2-0.4-5.6,0.3-6.2,1.6
			C1279.2,611.9,1277.6,617.5,1275.9,622.1z"/>
		<path fill="#6B230E" d="M1303.9,358.3c4.7,0,9.5-0.7,14,0.1c13.8,2.6,19.5,10.1,19.7,24.2c0.1,3.6,0.7,7.4,2,10.8
			c3.7,9.9-0.4,16.8-9.2,20.2c-9.1,3.5-19.1,4.9-28.7,7.3c-17.3,4.4-34.8,8.3-51.9,13.6c-8.5,2.6-17.1,6.7-23.8,12.4
			c-9.1,7.7-14.7,18.2-17.3,30.3c-2.7,12.3,0.4,23.9,3,35.5c4.1,18.4,9.9,36.6,8.4,55.8c-0.6,8.2-2.4,16.3-9.9,21.7
			c-3.2,2.2-6.1,4.8-9.1,7.3c-2.9,2.4-4.9,2.4-5.9-1.7c-0.5-1.9-0.7-3.9-1.5-5.6c-1.6-3.6-0.2-5.7,2.8-7.7
			c10.3-6.9,14.5-22.7,9.3-34.3c-1.2-2.8-2-5.7-3.2-8.6c-4.6-11.5-9.4-22.8-13.7-34.4c-1.9-5.2-2.7-10.7-3.9-16.1
			c-1.2-4.8-3.6-9.7-3.3-14.5c0.6-9.4,1.7-19,4.5-27.9c3.3-10.4,8.3-20.3,13.5-29.9c2.5-4.7,7.2-8.1,10.9-12.2
			c16-17.3,35.7-29.5,57-38.7c11.2-4.8,23.9-6.3,35.9-9.3C1303.7,357.2,1303.8,357.7,1303.9,358.3z"/>
		<path fill="#6B230E" d="M1403,352.1c7.9,0.5,15.8,0.4,23.6,1.6c9.6,1.5,19,4.7,26.4,11.1c9.9,8.6,19.7,17.4,28.2,27.3
			c5.7,6.6,7.6,15.4,8.2,24.4c1.2,17.1,3.5,34.1,5,51.2c0.6,6.8-0.2,13.8,0.7,20.6c2.2,15.4-0.1,30.6-1,46
			c-0.9,15.9,5.6,28.8,17.6,39.1c1.3,1.1,1.4,3.6,2.1,5.5c-1.8,0.3-3.8,1.2-5.4,0.6c-5.9-2.1-12-4.2-17.5-7.4
			c-2.9-1.7-5.7-5-6.8-8.2c-4-11.4-6.4-23.1-6.1-35.3c0.1-4.1-1.5-8.2-1.8-12.3c-0.8-11.6-1.7-23.3-1.9-35
			c-0.3-13.8-1.7-27.5-5.4-40.8c-1.7-6.1-4.7-11.6-9.7-15.9c-2-1.7-2.7-5.2-4.8-6.5c-4.4-2.5-9.1-5.1-14-5.8
			c-10.4-1.6-21-2.2-31.6-2.9c-6.9-0.4-14,0.7-20.9-0.3c-12-1.6-24-4.2-30.6-16.3c-5.1-9.3-4.7-19.2,4.7-26.2
			c9.6-7.1,19-14.6,31.7-15c3.1-0.1,6.1,0,9.2,0C1403,352,1403,352,1403,352.1z"/>
		<path fill="#3AAA35" d="M1351.3,791.8c0,0.2,0.3,1.3,0.1,2.4c-0.3,2.3-0.9,4.6-1.4,6.8c-2.5-2-5.6-3.5-7.4-6
			c-1.2-1.6-1.1-4.6-0.9-6.9c0.5-5.8-1.4-9.9-6.2-11.2c-5.3-1.5-8.5,1.3-9.8,6c-1.4,4.7-2.5,9.6-3,14.4c-0.4,4-5.5,8.3-10,7.2
			c-16.1-3.7-26.3-13.5-22.8-31.7c1.7-9.1,3.8-18.1,5.9-27.1c0.3-1.1,1.5-2,2.3-3c0.3,1,0.4,2.1,1,2.9c4.5,6.2,10.9,9.1,18.3,9.6
			c9.1,0.6,18.3,1,27.5,0.7c10-0.3,19.9-1.4,29.9-2.1c3.4-0.2,6.7-0.2,10.1-0.4c8-0.3,9.1-4,11-13.9c0.4-2,0.3-4.2,0.7-6.2
			c0.3-1.4,1.1-2.7,1.7-4.1c1.4,1,3.4,1.6,4.1,2.9c3.4,6.2,6.7,12.6,9.7,19c1.3,2.8,1.8,5.9,3,8.7c4,9.9,3.3,19.7-0.1,29.5
			c-0.6,1.8-2.9,4.7-3.9,4.5c-3.1-0.7-7.1,0.4-9-4c-2.2-4.9-4.8-9.8-8.3-13.8c-3.5-3.9-10.5-2.4-12.2,2.7c-1.6,4.6-1.3,9.8-2.4,14.6
			c-0.6,2.5-2,5.7-4,6.6c-2.5,1.1-4-1.3-4.2-4.2c-0.2-2.8-1.4-5.6-1.8-8.4c-1.1-7.6-3.3-9.9-9.9-9.5c-4.4,0.2-7.6,4.5-7.9,10.6
			C1351.3,789.1,1351.3,790,1351.3,791.8z"/>
		<path fill="#396AB2" d="M1325,1307.9c-0.8,17.7-1.6,36.9-2.8,56.1c-0.4,5.9-1.5,12-3.4,17.6c-1.1,3.2-4.2,7.2-7.1,7.8
			c-2.6,0.5-6.6-2.5-9.1-4.8c-9.5-9.2-11.9-21.8-14.8-33.9c-1.4-5.8-0.8-12.2-0.7-18.3c0-4.7,0-8.1-6.7-7.5
			c-6.5,0.6-10.3-4.2-10.4-11.1c-0.1-9.9,1.8-19.3,6.4-28.2c1.7-3.4,3.1-2.9,5.2-0.7c7.4,7.2,16.2,6.7,25.3,4.5
			c0.8-0.2,1.5-0.6,2.2-1c1.9-1.2,5-3.9,5.5-3.5c2.9,2.6,6,5.5,7.5,8.9C1323.8,1297.4,1323.9,1302,1325,1307.9z"/>
		<path fill="#396AB2" d="M1463.8,1294.6c-0.1,7.3-2.5,13.9-12.7,13c-5.1-0.4-6.7,5.8-7.4,11.5c-0.9,8.2-1,16.4-2.2,24.5
			c-1.2,7.8-2.6,15.9-5.6,23.1c-2,4.7-7.1,8.1-11.1,11.7c-0.6,0.5-4.2-0.7-4.6-1.8c-3-8.3-6.6-16.5-8-25.1
			c-2.2-12.7-3.4-25.7-3.8-38.6c-0.3-10.6,1.1-21.2,2-31.8c0.1-1.4,1.3-2.6,2-3.9c1.2,0.9,3.1,1.4,3.6,2.6
			c3.3,8.1,13.1,9.3,19.8,6.8c6.6-2.5,14.5-3.3,17.8-11.3c0.1-0.1,3.6,0.4,4.1,1.3c2.8,5.7,5.2,11.6,7.7,17.4
			C1464.8,1294.2,1464.3,1294.4,1463.8,1294.6z"/>
		<path fill="#FCCB8D" d="M1307.1,720c0-5.3-0.2-10.6,0.1-15.9c0.1-1.2,1.8-3,2.9-3.2c2.2-0.3,4.5,0.2,6.7,0.8
			c21.8,5.7,43.6,8,65.5,0.7c3.6-1.2,4.5-0.2,4.4,3.4c-0.3,10.8-0.1,21.6-0.5,32.5c-0.1,1.5-2.3,3.8-3.9,4.1
			c-5.6,1.1-11.3,1.4-17,2.1c-5.8,0.7-11.6,2.3-17.4,2.3c-12.6,0.1-25.8,2.1-36.6-6.9c-1.8-1.5-2.8-4.4-3.1-6.8
			c-0.7-4.3-0.6-8.7-0.8-13C1307.2,720,1307.1,720,1307.1,720z"/>
		<path fill="#C693C2" d="M1531.1,485.1c15.5-2.3,28.2,5.3,41.2,11.4c1.2,0.6,2.3,3.5,1.9,4.8c-4.9,14-10,28-15.3,41.9
			c-1.3,3.5-3.6,5.1-8,3.2c-2.7-1.2-6.5,0.3-9.6-0.2c-1.9-0.3-4.9-1.8-5.3-3.3c-3.2-11.4-6.2-22.8-8.5-34.4
			c-1.3-6.4-1.5-13-1.4-19.6c0-1.8,2.5-3.7,3.8-5.5C1530.4,483.9,1530.8,484.5,1531.1,485.1z"/>
		<path fill="#6B230E" d="M1099.4,588c9.2-0.2,11.7-3.1,9.5-12c-0.4-1.7-2.6-3.7-4.4-4.2c-3.8-1.1-7.9-1-11.8-2.1
			c-1.5-0.4-2.6-2.7-3.8-4.1c1.4-0.4,3-1.4,4.3-1.1c9.8,2.3,19.9,4,29.3,7.5c7,2.6,13.3,7.4,19.8,11.2c5,2.9,0.8,7.7,2.2,11.4
			c0.5,1.4-0.1,3.2,0,4.8c1.1,12-0.4,14.4-11.4,19.6c-10.7,5-21.9,7.7-33.6,8.9c-4.6,0.5-6.9-1.4-7.1-5.3c-0.2-3.4-0.6-7.3,5-8.1
			c8.8-1.3,11.2-3.5,10.1-9.2c-0.5-2.7-2.9-5.5-5.1-7.3c-2.1-1.7-5.3-2-7.9-3.1c-1.4-0.6-2.6-1.6-4-2.5c1.8-1.5,3.5-3.3,5.5-4.5
			C1096.8,587.3,1098.3,587.9,1099.4,588z"/>
		<path fill="#6B230E" d="M1600.6,595.8c-10.5-0.7-21-1.1-31.5-2.1c-7.3-0.6-8-2.6-6.8-10c1.1-6.7,0.8-13.6,1.6-20.4
			c0.3-2.2,1.7-4.9,3.4-6c10.7-6.9,21.5-13.6,32.5-19.9c1.4-0.8,5.1,0.1,6.1,1.5c1,1.3,0.8,4.9-0.3,6.2c-2.1,2.3-5.2,3.7-8,5.1
			c-3.1,1.5-6.6,3.3-5.1,7c0.8,2.1,4.4,3.4,7,4.3c2.7,0.9,6,0.3,8.5,1.4c1.8,0.8,3.7,3.2,4,5.1c0.2,1.3-2.4,3.1-3.9,4.4
			c-0.7,0.6-2.1,0.2-2.7,0.8c-1.9,1.7-3.6,3.6-5.4,5.4c1.9,1.4,3.7,2.9,5.7,4.1c1.1,0.6,2.5,0.7,3.7,1.1c2,0.6,5.6,1,5.8,1.8
			c0.6,4.1-4.8,10-8.7,10.2C1604.6,595.9,1602.6,595.8,1600.6,595.8z"/>
		<path fill="#C693C2" d="M1148.1,665.6c2-13.5,4.1-27,6-40.5c0.5-3.3,2.1-4.4,4.9-2.9c6.1,3.2,12.3,2.4,18.5,1
			c3.2-0.7,3.7,0.8,4.5,3.3c3.2,9.7,6.7,19.3,10.1,28.9c0.7,2,1.5,3.9,2.1,6c1.6,5.9,1.5,8.8-6.9,10.6c-9.7,2.1-19.5,3.8-29.3,5.6
			c-6.1,1.1-9.5-2-9-8.4c0.1-1.1,0.1-2.3,0.2-3.4C1148.8,665.7,1148.4,665.6,1148.1,665.6z"/>
		<path fill="#EF99C1" d="M1544.1,654.9c-8.9,0-17.6,0.2-26.3-0.2c-1.4-0.1-3.8-3.1-3.7-4.6c0.7-6,1.9-11.9,3.4-17.8
			c2.1-8.1,4.9-16,7.1-24c1.3-4.9,3.5-7.6,8.9-5.9c0.2,0,0.3,0,0.5,0c14.6,1.7,14.5,1.8,18.4,15.7c2.7,9.6,5.9,19,9,28.5
			c1.2,3.8,0.3,6.1-4,6.6C1552.9,653.8,1548.5,654.4,1544.1,654.9z"/>
		<path fill="#C693C2" d="M1148.8,510.7c10.8,0.1,16.3,6.1,20.1,18.2c3.4,10.7,3.2,22.6,4.2,33.9c0.3,3.4-5.9,6.6-11.2,7.6
			c-8.7,1.6-13.1-3.1-16.4-10.1c-5.9-12.5-11.8-25-13.8-38.8c-0.2-1.5,0.2-4.2,1.1-4.6C1138.1,514.6,1143.5,512.8,1148.8,510.7z"/>
		<path fill="#CCA576" d="M1284.7,1259.5c-0.6-10.3-1-20.7-1.7-31c-0.2-2.9,0.7-4.5,3.5-4.7c7.4-0.5,14.8-1,22.2-1
			c1.5,0,4.3,2.6,4.3,4c0,13.5,0.1,27.1-1,40.5c-0.4,4.9-3.3,9.8-5.8,14.2c-0.8,1.4-4.6,2.2-6.7,1.7c-10.3-2.5-15.9-8.8-14.9-21.3
			c0.1-0.8-0.1-1.6-0.2-2.4C1284.5,1259.5,1284.6,1259.5,1284.7,1259.5z"/>
		<path fill="#FCCB8D" d="M1411.8,1001.4c1.3,8.4,2.5,16.8,3.9,25.2c1.2,7.1-9.3,14.4-17.2,11.8c-3.5-1.1-7.2-2-10.4-3.7
			c-1.5-0.7-3-3-3.1-4.6c-0.1-3.8,1.2-7.3,5.4-8.7c1.5-0.5,3.8-0.4,4.5-1.4c1.4-2,2.8-4.7,2.6-6.9c-0.3-2.9-3-3.4-5.7-2.1
			c-0.8,0.4-2,0.6-2.9,0.3c-2.3-0.8-6.5-1.8-6.5-2.9c-0.1-3.3,0.4-7.4,5.4-7.7c1.9-0.1,3.8-0.5,5.6-1c1.3-0.4,2.4-1.1,3.6-1.7
			c-0.9-1.1-1.6-2.5-2.8-3.2c-1.8-1-3.9-1.2-5.8-2c-3.1-1.3-6.4-2.3-9-4.3c-3.2-2.4,0-10.2,5.2-11.9c5.6-1.8,11.3-3.7,17.5-2.2
			c9.3,2.2,9.3,3.9,11,15.1c0.6,3.8,0.1,7.8,0.1,11.7C1412.7,1001.3,1412.3,1001.4,1411.8,1001.4z"/>
		<path fill="#CCA576" d="M1442.1,1225.7c0.5,4.8,1.7,9.6,1.5,14.4c-0.4,10.9-0.8,21.9-2.6,32.6c-0.9,5.7-10.4,8.1-14.8,4
			c-2.9-2.7-5.4-6.7-6-10.5c-2-11.1-3.1-22.4-4.5-33.7c-0.4-3-0.3-6.2-1-9.1c-1-3.7,0.8-5.5,3.7-6.1c6.6-1.4,13.3-2.6,20-3.3
			c1.2-0.1,3.6,2,3.9,3.5c0.7,2.6,0.2,5.4,0.2,8.2C1442.4,1225.6,1442.3,1225.6,1442.1,1225.7z"/>
		<path fill="#FCCB8D" d="M1337.7,1035.4c-2.6-0.4-5.5-0.2-7.5-1.4c-2.1-1.3-4.5-3.9-4.8-6.1c-1.2-9-1.4-18.1-2.5-27
			c-1.2-9.7,4.1-16.9,9.2-23.9c3.2-4.4,17.5-0.9,19.1,4.4c0.9,3,1,6-3.7,6.7c-4.2,0.7-8.5,2.1-12.4,3.9c-1.5,0.7-3.2,3.8-2.8,5.2
			c0.4,1.5,3.1,3,5.1,3.4c1.9,0.4,4.2-1,6.1-0.6c1.4,0.2,2.5,2,3.7,3.1c-1,0.8-2,2.1-3.1,2.2c-6,0.6-8.9,4.8-11.2,9.4
			c-2,4,2.1,4.5,4.3,5.2c2.2,0.7,4.9,0.5,7.2,0.2c4.9-0.6,6.5,2.5,6.9,6.3c0.4,3.6-0.7,6.9-4.9,7.8
			C1343.6,1034.8,1340.6,1035,1337.7,1035.4z"/>
		<path fill="#B271AC" d="M1526.7,576.3c0.4-13.6,4.5-14.8,12.2-14.5c13.9,0.5,15.6,2.6,14.9,14.3c-0.4,7-4,12.9-7.9,12.4
			c-4.4-0.5-8.8-1.2-13-2.5C1528.1,584.4,1525.2,581.2,1526.7,576.3z"/>
		<path fill="#B271AC" d="M1174.3,581c4.2-0.8,6.1,3.6,7.6,7.3c2.3,5.4-3,18.1-7.8,21.7c-4,2.9-7.8,1.4-10.8-0.6
			c-2.8-1.9-6.7-3.9-5.5-9c0.6-2.6,0-5.5,0.3-8.2c0.7-7.7,3.2-10.1,11-10.7C1170.3,581.3,1171.6,581.2,1174.3,581z"/>
		<path fill="#272449" d="M1408.5,521.7c-4.7-1.7-12.7-3.6-19.7-7.4c-8.4-4.6-15.8-10.8-23.6-16.5c-0.9-0.7-1.4-2.6-1.3-3.9
			c0.8-7.9,6.4-12.9,11.9-17.7c9.6-8.4,21.3-12.9,33.6-13.8c6.5-0.5,13.4,2.6,19.8,4.7c5.2,1.8,10,4.8,15.1,6.9
			c4.9,2.1,8.4,9.4,7.2,14.6C1447.2,508.8,1426.7,521.2,1408.5,521.7z M1425.1,481.8c-1,1.3-2.1,2.1-2.3,3.1c-1,5.5-1.8,11-2.6,16.5
			c-0.2,1,0,2.1,0,3.1c1.1-0.1,2.4,0.2,3.2-0.3c4.8-3.2,9.6-6.3,14.1-9.9c0.9-0.7,0.9-4.4,0.1-4.9
			C1433.8,486.6,1429.7,484.5,1425.1,481.8z M1388.9,499.4c1.6-1.5,2.7-2.1,2.9-2.9c1.5-4.7,2.8-9.5,4.1-14.3
			c0.7-2.8-0.2-4.2-3.2-2.9c-2.7,1.1-5.8,1.7-7.9,3.5c-2.5,2.2-6.2,6.8-5.5,8.1C1381.2,494.4,1385.3,496.5,1388.9,499.4z
			 M1411.9,492.3c-1.7-1.1-2.7-2.2-3.9-2.4c-0.7-0.1-2.3,1.6-2.2,2.2c0.3,1.1,1.4,2.9,2.3,2.9
			C1409.1,494.9,1410.2,493.5,1411.9,492.3z"/>
		<path fill="#272449" d="M1280.4,523.3c-19,1.7-34.1-6.1-47-19c-5.1-5.2-5.3-9.7-0.4-14.9c9.3-9.7,19.7-17.5,33.9-18.8
			c8.5-0.8,16.8-3,25.3-3.7c3.8-0.4,8.2,0.4,11.7,2c6.1,2.8,12.1,6.2,17.5,10.2c4,2.9,5,9.9,2.2,13.8c-6.9,9.6-13.1,20.2-23.8,26.1
			c-5.7,3.1-12.7,4.1-19.1,6C1280.6,524.4,1280.5,523.9,1280.4,523.3z M1257.2,506.1c0-0.5,0-1.1,0-1.6c4.2,2.4,3.4-0.3,3.4-2.3
			c0-5.1,0.2-10.3,0-15.4c0-0.8-2-2.3-2.4-2.1c-5.1,2.6-10.2,5.1-15,8.2c-2.5,1.7-2.5,4.8,0.2,6.3
			C1247.8,501.9,1252.6,503.9,1257.2,506.1z M1291.8,500.6c-0.5,3.1-0.5,5.8,4.2,4.4c4.2-1.2,12.1-7.8,13.1-12.3
			c0.2-0.8,0-2.3-0.5-2.6c-4.5-2.6-9.1-5.1-13.8-7.4c-0.6-0.3-2.8,0.9-2.9,1.4C1291.7,489.6,1291.8,495.1,1291.8,500.6z
			 M1276.6,502.7c3.4,0.3,7.8-3.9,8.2-7.8c0.4-3.3-4.6-8.7-8.3-8.7c-4.4,0.1-6.2,3.7-6.7,7.2
			C1268.8,500.2,1270.6,502.3,1276.6,502.7z"/>
		<path fill="#272449" d="M1341.9,674c-8.8,0.4-16.9-1.4-23.6-7.6c-6.4-5.9-13.4-11.2-19.8-17.3c-7.6-7.2-8.5-17.4-2.2-25.3
			c3.2-4,7.4-2.7,10.8-2c6.1,1.2,11.8,4,17.8,5.6c16.9,4.6,34,9.8,50.2-2.1c5.7-4.2,11.9-4.7,18.6-3.9c3.9,0.4,4.8,3,4.6,5.9
			c-1.3,17.6-7.5,33.1-24.2,41c-8.3,3.9-18.4,4-27.7,5.7C1344.8,674.3,1343.3,674,1341.9,674z M1386.9,638c-0.3-0.7-0.6-1.5-1-2.4
			c-0.6,0.4-1.3,0.8-1.9,1.2c-3.3,2-6.4,4.3-9.9,5.8c-13.6,6.3-27.7,4-41.4,1c-7.6-1.7-14.7-5.4-22.1-8.1c-1.3-0.5-2.8-0.8-4.1-0.5
			c-0.5,0.1-1.3,2.1-1,2.9c2.8,7.1,6.7,14.6,14.1,16.5c14.2,3.7,28.4,9.1,43.8,4.4c10-3,16.8-8.9,22.1-17.3
			C1386.3,640.6,1386.5,639.4,1386.9,638z"/>
		<path fill="#272449" d="M1328.7,520.8c-2.8,14-5.5,28.1-8.4,42.1c-0.8,4.1-2.9,8-3,12.1c0,5.5,4,9,8.1,12.3
			c4.7,3.8,10.1,3.5,15.1,2.6c5.9-1.1,9.1-6.2,11.5-11.4c0.2-0.4,0.3-1,0.6-1.3c1.4-1.6,2.8-3.2,4.3-4.7c1.1,1.8,2.4,3.5,3.3,5.4
			c1,1.9,1.8,4,2.7,6c2.5-2.3,5.9-4.3,7-7.2c0.6-1.4-2.6-5.5-5-6.6c-2.9-1.3-3.5-3-2.4-5.1c1.2-2.3,3.2-4.2,4.9-6.2
			c3.1,2.7,7.3,4.8,9.2,8.2c4.5,8.5-2,23.6-11,26.8c-1.5,0.5-4,0.7-5.1-0.1c-4-3.1-6.8-1.2-9.1,1.8c-6.5,8.4-21.5,7.5-30.2,2.1
			c-7.8-4.8-13.1-10.4-12.5-19.6c0.3-5.9,1.6-12,3.8-17.5c5.4-13.5,9.2-27,6.9-41.7c-0.2-1.5,0-3.4,0.7-4.7c1.2-2,3.1-3.7,4.7-5.6
			c0.7,2.1,1.7,4.1,2.1,6.3c0.3,1.9,0.1,3.9,0.1,5.8C1327.6,520.6,1328.2,520.7,1328.7,520.8z"/>
		<path fill="#272449" d="M1421.7,626.6c-2.4,7.3-4.5,14.6-7.4,21.7c-0.6,1.6-3.7,2.2-5.6,3.3c-0.6-2.1-2.2-4.6-1.7-6.4
			c2.8-8.5,5.7-17,3.2-26c-0.8-3-2.8-5.6-3.9-8.6c-0.3-0.8,0.2-2.7,0.8-2.9c6-2.1,11.5,1.7,12.4,8.7c0.4,3.2,0.5,6.5,0.7,9.7
			C1420.7,626.3,1421.2,626.5,1421.7,626.6z"/>
		<path fill="#272449" d="M1275.9,622.1c1.6-4.6,3.3-10.2,5.8-15.4c0.6-1.3,4.3-2,6.2-1.6c3.1,0.7,4.6,3.4,2,6
			c-5.8,5.7-5.2,12.6-3.9,19.4c0.7,3.6-1.5,5.1-3.8,6.1c-0.6,0.3-3.1-2.4-3.8-4C1277.2,629.6,1276.9,626.4,1275.9,622.1z"/>
		<path fill="#AAD2E8" d="M1425.1,481.8c4.6,2.7,8.8,4.8,12.5,7.5c0.8,0.6,0.8,4.2-0.1,4.9c-4.5,3.6-9.3,6.8-14.1,9.9
			c-0.8,0.5-2.1,0.3-3.2,0.3c0-1-0.1-2.1,0-3.1c0.8-5.5,1.6-11,2.6-16.5C1423,483.9,1424,483.2,1425.1,481.8z"/>
		<path fill="#AAD2E8" d="M1388.9,499.4c-3.5-2.9-7.6-5-9.6-8.4c-0.7-1.3,3-5.9,5.5-8.1c2-1.8,5.2-2.4,7.9-3.5
			c3.1-1.3,4,0.1,3.2,2.9c-1.2,4.8-2.6,9.5-4.1,14.3C1391.5,497.3,1390.5,497.9,1388.9,499.4z"/>
		<path fill="#3987C6" d="M1411.9,492.3c-1.7,1.2-2.8,2.7-3.9,2.6c-0.9,0-2-1.8-2.3-2.9c-0.1-0.6,1.5-2.2,2.2-2.2
			C1409.2,490,1410.2,491.1,1411.9,492.3z"/>
		<path fill="#AAD2E8" d="M1257.2,506.1c-4.6-2.3-9.4-4.2-13.8-6.9c-2.6-1.6-2.7-4.7-0.2-6.3c4.8-3.1,9.9-5.6,15-8.2
			c0.4-0.2,2.4,1.4,2.4,2.1c0.2,5.1,0,10.2,0,15.4c0,2,0.7,4.7-3.4,2.3C1257.3,505,1257.2,505.6,1257.2,506.1z"/>
		<path fill="#AAD2E8" d="M1291.8,500.6c0-5.5-0.1-11,0.1-16.5c0-0.5,2.2-1.7,2.9-1.4c4.7,2.3,9.3,4.8,13.8,7.4
			c0.5,0.3,0.7,1.8,0.5,2.6c-1,4.5-8.9,11.1-13.1,12.3C1291.3,506.4,1291.3,503.7,1291.8,500.6z"/>
		<path fill="#3987C6" d="M1276.6,502.7c-6-0.4-7.8-2.5-6.7-9.3c0.5-3.5,2.3-7.1,6.7-7.2c3.7-0.1,8.7,5.4,8.3,8.7
			C1284.4,498.9,1280,503,1276.6,502.7z"/>
		<path fill="#E5231B" d="M1386.9,638c-0.4,1.3-0.6,2.5-1.2,3.4c-5.3,8.4-12.1,14.3-22.1,17.3c-15.5,4.7-29.6-0.8-43.8-4.4
			c-7.3-1.9-11.2-9.4-14.1-16.5c-0.3-0.8,0.5-2.8,1-2.9c1.3-0.2,2.8,0.1,4.1,0.5c7.4,2.7,14.5,6.5,22.1,8.1c13.7,3,27.8,5.3,41.4-1
			c3.5-1.6,6.6-3.9,9.9-5.8c0.6-0.4,1.3-0.8,1.9-1.2C1386.3,636.5,1386.6,637.3,1386.9,638z"/>
	</g>
</g>
<g id="Layer_1">
</g>
</svg>
